<?xml version="1.0" encoding="utf-8" standalone="no"?>
<!DOCTYPE svg PUBLIC "-//W3C//DTD SVG 1.1//EN"
  "http://www.w3.org/Graphics/SVG/1.1/DTD/svg11.dtd">
<!-- Created with matplotlib (http://matplotlib.org/) -->
<svg height="343pt" version="1.1" viewBox="0 0 696 343" width="696pt" xmlns="http://www.w3.org/2000/svg" xmlns:xlink="http://www.w3.org/1999/xlink">
 <defs>
  <style type="text/css">
*{stroke-linecap:butt;stroke-linejoin:round;}
  </style>
 </defs>
 <g id="figure_1">
  <g id="patch_1">
   <path d="
M0 343.845
L696.534 343.845
L696.534 0
L0 0
z
" style="fill:#f0f0f0;"/>
  </g>
  <g id="axes_1">
   <g id="patch_2">
    <path d="
M51.048 274.806
L677.448 274.806
L677.448 35.7658
L51.048 35.7658
z
" style="fill:#f0f0f0;"/>
   </g>
   <g id="matplotlib.axis_1">
    <g id="xtick_1">
     <g id="line2d_1">
      <path clip-path="url(#pcf09616d9d)" d="
M82.368 274.806
L82.368 35.7658" style="fill:none;stroke:#cbcbcb;"/>
     </g>
     <g id="line2d_2">
      <defs>
       <path d="
M0 0
L0 0" id="m8bc147ca23" style="stroke:#555555;stroke-width:0.5;"/>
      </defs>
      <g>
       <use style="fill:#555555;stroke:#555555;stroke-width:0.5;" x="82.368" xlink:href="#m8bc147ca23" y="274.8058125"/>
      </g>
     </g>
     <g id="line2d_3">
      <g>
       <use style="fill:#555555;stroke:#555555;stroke-width:0.5;" x="82.368" xlink:href="#m8bc147ca23" y="35.7658125"/>
      </g>
     </g>
     <g id="text_1">
      <!-- Popolazione  -->
      <defs>
       <path d="
M56.2031 29.5938
L56.2031 25.2031
L14.8906 25.2031
Q15.4844 15.9219 20.4844 11.0625
Q25.4844 6.20312 34.4219 6.20312
Q39.5938 6.20312 44.4531 7.46875
Q49.3125 8.73438 54.1094 11.2812
L54.1094 2.78125
Q49.2656 0.734375 44.1875 -0.34375
Q39.1094 -1.42188 33.8906 -1.42188
Q20.7969 -1.42188 13.1562 6.1875
Q5.51562 13.8125 5.51562 26.8125
Q5.51562 40.2344 12.7656 48.1094
Q20.0156 56 32.3281 56
Q43.3594 56 49.7812 48.8906
Q56.2031 41.7969 56.2031 29.5938
M47.2188 32.2344
Q47.125 39.5938 43.0938 43.9844
Q39.0625 48.3906 32.4219 48.3906
Q24.9062 48.3906 20.3906 44.1406
Q15.875 39.8906 15.1875 32.1719
z
" id="DejaVuSans-65"/>
       <path d="
M30.6094 48.3906
Q23.3906 48.3906 19.1875 42.75
Q14.9844 37.1094 14.9844 27.2969
Q14.9844 17.4844 19.1562 11.8438
Q23.3438 6.20312 30.6094 6.20312
Q37.7969 6.20312 41.9844 11.8594
Q46.1875 17.5312 46.1875 27.2969
Q46.1875 37.0156 41.9844 42.7031
Q37.7969 48.3906 30.6094 48.3906
M30.6094 56
Q42.3281 56 49.0156 48.375
Q55.7188 40.7656 55.7188 27.2969
Q55.7188 13.875 49.0156 6.21875
Q42.3281 -1.42188 30.6094 -1.42188
Q18.8438 -1.42188 12.1719 6.21875
Q5.51562 13.875 5.51562 27.2969
Q5.51562 40.7656 12.1719 48.375
Q18.8438 56 30.6094 56" id="DejaVuSans-6f"/>
       <path d="
M54.8906 33.0156
L54.8906 0
L45.9062 0
L45.9062 32.7188
Q45.9062 40.4844 42.875 44.3281
Q39.8438 48.1875 33.7969 48.1875
Q26.5156 48.1875 22.3125 43.5469
Q18.1094 38.9219 18.1094 30.9062
L18.1094 0
L9.07812 0
L9.07812 54.6875
L18.1094 54.6875
L18.1094 46.1875
Q21.3438 51.125 25.7031 53.5625
Q30.0781 56 35.7969 56
Q45.2188 56 50.0469 50.1719
Q54.8906 44.3438 54.8906 33.0156" id="DejaVuSans-6e"/>
       <path d="
M5.51562 54.6875
L48.1875 54.6875
L48.1875 46.4844
L14.4062 7.17188
L48.1875 7.17188
L48.1875 0
L4.29688 0
L4.29688 8.20312
L38.0938 47.5156
L5.51562 47.5156
z
" id="DejaVuSans-7a"/>
       <path d="
M9.42188 75.9844
L18.4062 75.9844
L18.4062 0
L9.42188 0
z
" id="DejaVuSans-6c"/>
       <path id="DejaVuSans-20"/>
       <path d="
M9.42188 54.6875
L18.4062 54.6875
L18.4062 0
L9.42188 0
z

M9.42188 75.9844
L18.4062 75.9844
L18.4062 64.5938
L9.42188 64.5938
z
" id="DejaVuSans-69"/>
       <path d="
M19.6719 64.7969
L19.6719 37.4062
L32.0781 37.4062
Q38.9688 37.4062 42.7188 40.9688
Q46.4844 44.5312 46.4844 51.125
Q46.4844 57.6719 42.7188 61.2344
Q38.9688 64.7969 32.0781 64.7969
z

M9.8125 72.9062
L32.0781 72.9062
Q44.3438 72.9062 50.6094 67.3594
Q56.8906 61.8125 56.8906 51.125
Q56.8906 40.3281 50.6094 34.8125
Q44.3438 29.2969 32.0781 29.2969
L19.6719 29.2969
L19.6719 0
L9.8125 0
z
" id="DejaVuSans-50"/>
       <path d="
M18.1094 8.20312
L18.1094 -20.7969
L9.07812 -20.7969
L9.07812 54.6875
L18.1094 54.6875
L18.1094 46.3906
Q20.9531 51.2656 25.2656 53.625
Q29.5938 56 35.5938 56
Q45.5625 56 51.7812 48.0938
Q58.0156 40.1875 58.0156 27.2969
Q58.0156 14.4062 51.7812 6.48438
Q45.5625 -1.42188 35.5938 -1.42188
Q29.5938 -1.42188 25.2656 0.953125
Q20.9531 3.32812 18.1094 8.20312
M48.6875 27.2969
Q48.6875 37.2031 44.6094 42.8438
Q40.5312 48.4844 33.4062 48.4844
Q26.2656 48.4844 22.1875 42.8438
Q18.1094 37.2031 18.1094 27.2969
Q18.1094 17.3906 22.1875 11.75
Q26.2656 6.10938 33.4062 6.10938
Q40.5312 6.10938 44.6094 11.75
Q48.6875 17.3906 48.6875 27.2969" id="DejaVuSans-70"/>
       <path d="
M34.2812 27.4844
Q23.3906 27.4844 19.1875 25
Q14.9844 22.5156 14.9844 16.5
Q14.9844 11.7188 18.1406 8.90625
Q21.2969 6.10938 26.7031 6.10938
Q34.1875 6.10938 38.7031 11.4062
Q43.2188 16.7031 43.2188 25.4844
L43.2188 27.4844
z

M52.2031 31.2031
L52.2031 0
L43.2188 0
L43.2188 8.29688
Q40.1406 3.32812 35.5469 0.953125
Q30.9531 -1.42188 24.3125 -1.42188
Q15.9219 -1.42188 10.9531 3.29688
Q6 8.01562 6 15.9219
Q6 25.1406 12.1719 29.8281
Q18.3594 34.5156 30.6094 34.5156
L43.2188 34.5156
L43.2188 35.4062
Q43.2188 41.6094 39.1406 45
Q35.0625 48.3906 27.6875 48.3906
Q23 48.3906 18.5469 47.2656
Q14.1094 46.1406 10.0156 43.8906
L10.0156 52.2031
Q14.9375 54.1094 19.5781 55.0469
Q24.2188 56 28.6094 56
Q40.4844 56 46.3438 49.8438
Q52.2031 43.7031 52.2031 31.2031" id="DejaVuSans-61"/>
      </defs>
      <g style="fill:#555555;" transform="translate(52.73675 286.40425)scale(0.1 -0.1)">
       <use xlink:href="#DejaVuSans-50"/>
       <use x="56.677734375" xlink:href="#DejaVuSans-6f"/>
       <use x="117.859375" xlink:href="#DejaVuSans-70"/>
       <use x="181.3359375" xlink:href="#DejaVuSans-6f"/>
       <use x="242.517578125" xlink:href="#DejaVuSans-6c"/>
       <use x="270.30078125" xlink:href="#DejaVuSans-61"/>
       <use x="331.580078125" xlink:href="#DejaVuSans-7a"/>
       <use x="384.0703125" xlink:href="#DejaVuSans-69"/>
       <use x="411.853515625" xlink:href="#DejaVuSans-6f"/>
       <use x="473.03515625" xlink:href="#DejaVuSans-6e"/>
       <use x="536.4140625" xlink:href="#DejaVuSans-65"/>
       <use x="597.9375" xlink:href="#DejaVuSans-20"/>
      </g>
      <!-- e società -->
      <defs>
       <path d="
M18.3125 70.2188
L18.3125 54.6875
L36.8125 54.6875
L36.8125 47.7031
L18.3125 47.7031
L18.3125 18.0156
Q18.3125 11.3281 20.1406 9.42188
Q21.9688 7.51562 27.5938 7.51562
L36.8125 7.51562
L36.8125 0
L27.5938 0
Q17.1875 0 13.2344 3.875
Q9.28125 7.76562 9.28125 18.0156
L9.28125 47.7031
L2.6875 47.7031
L2.6875 54.6875
L9.28125 54.6875
L9.28125 70.2188
z
" id="DejaVuSans-74"/>
       <path d="
M34.2812 27.4844
Q23.3906 27.4844 19.1875 25
Q14.9844 22.5156 14.9844 16.5
Q14.9844 11.7188 18.1406 8.90625
Q21.2969 6.10938 26.7031 6.10938
Q34.1875 6.10938 38.7031 11.4062
Q43.2188 16.7031 43.2188 25.4844
L43.2188 27.4844
z

M52.2031 31.2031
L52.2031 0
L43.2188 0
L43.2188 8.29688
Q40.1406 3.32812 35.5469 0.953125
Q30.9531 -1.42188 24.3125 -1.42188
Q15.9219 -1.42188 10.9531 3.29688
Q6 8.01562 6 15.9219
Q6 25.1406 12.1719 29.8281
Q18.3594 34.5156 30.6094 34.5156
L43.2188 34.5156
L43.2188 35.4062
Q43.2188 41.6094 39.1406 45
Q35.0625 48.3906 27.6875 48.3906
Q23 48.3906 18.5469 47.2656
Q14.1094 46.1406 10.0156 43.8906
L10.0156 52.2031
Q14.9375 54.1094 19.5781 55.0469
Q24.2188 56 28.6094 56
Q40.4844 56 46.3438 49.8438
Q52.2031 43.7031 52.2031 31.2031
M21.9219 79.9844
L35.6875 61.7188
L28.2188 61.7188
L12.2969 79.9844
z
" id="DejaVuSans-e0"/>
       <path d="
M48.7812 52.5938
L48.7812 44.1875
Q44.9688 46.2969 41.1406 47.3438
Q37.3125 48.3906 33.4062 48.3906
Q24.6562 48.3906 19.8125 42.8438
Q14.9844 37.3125 14.9844 27.2969
Q14.9844 17.2812 19.8125 11.7344
Q24.6562 6.20312 33.4062 6.20312
Q37.3125 6.20312 41.1406 7.25
Q44.9688 8.29688 48.7812 10.4062
L48.7812 2.09375
Q45.0156 0.34375 40.9844 -0.53125
Q36.9688 -1.42188 32.4219 -1.42188
Q20.0625 -1.42188 12.7812 6.34375
Q5.51562 14.1094 5.51562 27.2969
Q5.51562 40.6719 12.8594 48.3281
Q20.2188 56 33.0156 56
Q37.1562 56 41.1094 55.1406
Q45.0625 54.2969 48.7812 52.5938" id="DejaVuSans-63"/>
       <path d="
M44.2812 53.0781
L44.2812 44.5781
Q40.4844 46.5312 36.375 47.5
Q32.2812 48.4844 27.875 48.4844
Q21.1875 48.4844 17.8438 46.4375
Q14.5 44.3906 14.5 40.2812
Q14.5 37.1562 16.8906 35.375
Q19.2812 33.5938 26.5156 31.9844
L29.5938 31.2969
Q39.1562 29.25 43.1875 25.5156
Q47.2188 21.7812 47.2188 15.0938
Q47.2188 7.46875 41.1875 3.01562
Q35.1562 -1.42188 24.6094 -1.42188
Q20.2188 -1.42188 15.4531 -0.5625
Q10.6875 0.296875 5.42188 2
L5.42188 11.2812
Q10.4062 8.6875 15.2344 7.39062
Q20.0625 6.10938 24.8125 6.10938
Q31.1562 6.10938 34.5625 8.28125
Q37.9844 10.4531 37.9844 14.4062
Q37.9844 18.0625 35.5156 20.0156
Q33.0625 21.9688 24.7031 23.7812
L21.5781 24.5156
Q13.2344 26.2656 9.51562 29.9062
Q5.8125 33.5469 5.8125 39.8906
Q5.8125 47.6094 11.2812 51.7969
Q16.75 56 26.8125 56
Q31.7812 56 36.1719 55.2656
Q40.5781 54.5469 44.2812 53.0781" id="DejaVuSans-73"/>
      </defs>
      <g style="fill:#555555;" transform="translate(60.25315625 297.6020625)scale(0.1 -0.1)">
       <use xlink:href="#DejaVuSans-65"/>
       <use x="61.5234375" xlink:href="#DejaVuSans-20"/>
       <use x="93.310546875" xlink:href="#DejaVuSans-73"/>
       <use x="145.41015625" xlink:href="#DejaVuSans-6f"/>
       <use x="206.591796875" xlink:href="#DejaVuSans-63"/>
       <use x="261.572265625" xlink:href="#DejaVuSans-69"/>
       <use x="289.35546875" xlink:href="#DejaVuSans-65"/>
       <use x="350.87890625" xlink:href="#DejaVuSans-74"/>
       <use x="390.087890625" xlink:href="#DejaVuSans-e0"/>
      </g>
     </g>
    </g>
    <g id="xtick_2">
     <g id="line2d_4">
      <path clip-path="url(#pcf09616d9d)" d="
M145.008 274.806
L145.008 35.7658" style="fill:none;stroke:#cbcbcb;"/>
     </g>
     <g id="line2d_5">
      <g>
       <use style="fill:#555555;stroke:#555555;stroke-width:0.5;" x="145.008" xlink:href="#m8bc147ca23" y="274.8058125"/>
      </g>
     </g>
     <g id="line2d_6">
      <g>
       <use style="fill:#555555;stroke:#555555;stroke-width:0.5;" x="145.008" xlink:href="#m8bc147ca23" y="35.7658125"/>
      </g>
     </g>
     <g id="text_2">
      <!-- Ambiente -->
      <defs>
       <path d="
M52 44.1875
Q55.375 50.25 60.0625 53.125
Q64.75 56 71.0938 56
Q79.6406 56 84.2812 50.0156
Q88.9219 44.0469 88.9219 33.0156
L88.9219 0
L79.8906 0
L79.8906 32.7188
Q79.8906 40.5781 77.0938 44.375
Q74.3125 48.1875 68.6094 48.1875
Q61.625 48.1875 57.5625 43.5469
Q53.5156 38.9219 53.5156 30.9062
L53.5156 0
L44.4844 0
L44.4844 32.7188
Q44.4844 40.625 41.7031 44.4062
Q38.9219 48.1875 33.1094 48.1875
Q26.2188 48.1875 22.1562 43.5312
Q18.1094 38.875 18.1094 30.9062
L18.1094 0
L9.07812 0
L9.07812 54.6875
L18.1094 54.6875
L18.1094 46.1875
Q21.1875 51.2188 25.4844 53.6094
Q29.7812 56 35.6875 56
Q41.6562 56 45.8281 52.9688
Q50 49.9531 52 44.1875" id="DejaVuSans-6d"/>
       <path d="
M48.6875 27.2969
Q48.6875 37.2031 44.6094 42.8438
Q40.5312 48.4844 33.4062 48.4844
Q26.2656 48.4844 22.1875 42.8438
Q18.1094 37.2031 18.1094 27.2969
Q18.1094 17.3906 22.1875 11.75
Q26.2656 6.10938 33.4062 6.10938
Q40.5312 6.10938 44.6094 11.75
Q48.6875 17.3906 48.6875 27.2969
M18.1094 46.3906
Q20.9531 51.2656 25.2656 53.625
Q29.5938 56 35.5938 56
Q45.5625 56 51.7812 48.0938
Q58.0156 40.1875 58.0156 27.2969
Q58.0156 14.4062 51.7812 6.48438
Q45.5625 -1.42188 35.5938 -1.42188
Q29.5938 -1.42188 25.2656 0.953125
Q20.9531 3.32812 18.1094 8.20312
L18.1094 0
L9.07812 0
L9.07812 75.9844
L18.1094 75.9844
z
" id="DejaVuSans-62"/>
       <path d="
M34.1875 63.1875
L20.7969 26.9062
L47.6094 26.9062
z

M28.6094 72.9062
L39.7969 72.9062
L67.5781 0
L57.3281 0
L50.6875 18.7031
L17.8281 18.7031
L11.1875 0
L0.78125 0
z
" id="DejaVuSans-41"/>
      </defs>
      <g style="fill:#555555;" transform="translate(121.17753125 286.40425)scale(0.1 -0.1)">
       <use xlink:href="#DejaVuSans-41"/>
       <use x="68.408203125" xlink:href="#DejaVuSans-6d"/>
       <use x="165.8203125" xlink:href="#DejaVuSans-62"/>
       <use x="229.296875" xlink:href="#DejaVuSans-69"/>
       <use x="257.080078125" xlink:href="#DejaVuSans-65"/>
       <use x="318.603515625" xlink:href="#DejaVuSans-6e"/>
       <use x="381.982421875" xlink:href="#DejaVuSans-74"/>
       <use x="421.19140625" xlink:href="#DejaVuSans-65"/>
      </g>
     </g>
    </g>
    <g id="xtick_3">
     <g id="line2d_7">
      <path clip-path="url(#pcf09616d9d)" d="
M207.648 274.806
L207.648 35.7658" style="fill:none;stroke:#cbcbcb;"/>
     </g>
     <g id="line2d_8">
      <g>
       <use style="fill:#555555;stroke:#555555;stroke-width:0.5;" x="207.648" xlink:href="#m8bc147ca23" y="274.8058125"/>
      </g>
     </g>
     <g id="line2d_9">
      <g>
       <use style="fill:#555555;stroke:#555555;stroke-width:0.5;" x="207.648" xlink:href="#m8bc147ca23" y="35.7658125"/>
      </g>
     </g>
     <g id="text_3">
      <!-- Istruzione,  -->
      <defs>
       <path d="
M8.5 21.5781
L8.5 54.6875
L17.4844 54.6875
L17.4844 21.9219
Q17.4844 14.1562 20.5 10.2656
Q23.5312 6.39062 29.5938 6.39062
Q36.8594 6.39062 41.0781 11.0312
Q45.3125 15.6719 45.3125 23.6875
L45.3125 54.6875
L54.2969 54.6875
L54.2969 0
L45.3125 0
L45.3125 8.40625
Q42.0469 3.42188 37.7188 1
Q33.4062 -1.42188 27.6875 -1.42188
Q18.2656 -1.42188 13.375 4.4375
Q8.5 10.2969 8.5 21.5781
M31.1094 56
z
" id="DejaVuSans-75"/>
       <path d="
M11.7188 12.4062
L22.0156 12.4062
L22.0156 4
L14.0156 -11.625
L7.71875 -11.625
L11.7188 4
z
" id="DejaVuSans-2c"/>
       <path d="
M9.8125 72.9062
L19.6719 72.9062
L19.6719 0
L9.8125 0
z
" id="DejaVuSans-49"/>
       <path d="
M41.1094 46.2969
Q39.5938 47.1719 37.8125 47.5781
Q36.0312 48 33.8906 48
Q26.2656 48 22.1875 43.0469
Q18.1094 38.0938 18.1094 28.8125
L18.1094 0
L9.07812 0
L9.07812 54.6875
L18.1094 54.6875
L18.1094 46.1875
Q20.9531 51.1719 25.4844 53.5781
Q30.0312 56 36.5312 56
Q37.4531 56 38.5781 55.875
Q39.7031 55.7656 41.0625 55.5156
z
" id="DejaVuSans-72"/>
      </defs>
      <g style="fill:#555555;" transform="translate(181.9651875 286.40425)scale(0.1 -0.1)">
       <use xlink:href="#DejaVuSans-49"/>
       <use x="29.4921875" xlink:href="#DejaVuSans-73"/>
       <use x="81.591796875" xlink:href="#DejaVuSans-74"/>
       <use x="120.80078125" xlink:href="#DejaVuSans-72"/>
       <use x="161.9140625" xlink:href="#DejaVuSans-75"/>
       <use x="225.29296875" xlink:href="#DejaVuSans-7a"/>
       <use x="277.783203125" xlink:href="#DejaVuSans-69"/>
       <use x="305.56640625" xlink:href="#DejaVuSans-6f"/>
       <use x="366.748046875" xlink:href="#DejaVuSans-6e"/>
       <use x="430.126953125" xlink:href="#DejaVuSans-65"/>
       <use x="491.650390625" xlink:href="#DejaVuSans-2c"/>
       <use x="523.4375" xlink:href="#DejaVuSans-20"/>
      </g>
      <!-- cultura  -->
      <g style="fill:#555555;" transform="translate(190.5464375 297.6020625)scale(0.1 -0.1)">
       <use xlink:href="#DejaVuSans-63"/>
       <use x="54.98046875" xlink:href="#DejaVuSans-75"/>
       <use x="118.359375" xlink:href="#DejaVuSans-6c"/>
       <use x="146.142578125" xlink:href="#DejaVuSans-74"/>
       <use x="185.3515625" xlink:href="#DejaVuSans-75"/>
       <use x="248.73046875" xlink:href="#DejaVuSans-72"/>
       <use x="289.84375" xlink:href="#DejaVuSans-61"/>
       <use x="351.123046875" xlink:href="#DejaVuSans-20"/>
      </g>
      <!-- e sport -->
      <g style="fill:#555555;" transform="translate(190.248 308.799875)scale(0.1 -0.1)">
       <use xlink:href="#DejaVuSans-65"/>
       <use x="61.5234375" xlink:href="#DejaVuSans-20"/>
       <use x="93.310546875" xlink:href="#DejaVuSans-73"/>
       <use x="145.41015625" xlink:href="#DejaVuSans-70"/>
       <use x="208.88671875" xlink:href="#DejaVuSans-6f"/>
       <use x="270.068359375" xlink:href="#DejaVuSans-72"/>
       <use x="311.181640625" xlink:href="#DejaVuSans-74"/>
      </g>
     </g>
    </g>
    <g id="xtick_4">
     <g id="line2d_10">
      <path clip-path="url(#pcf09616d9d)" d="
M270.288 274.806
L270.288 35.7658" style="fill:none;stroke:#cbcbcb;"/>
     </g>
     <g id="line2d_11">
      <g>
       <use style="fill:#555555;stroke:#555555;stroke-width:0.5;" x="270.288" xlink:href="#m8bc147ca23" y="274.8058125"/>
      </g>
     </g>
     <g id="line2d_12">
      <g>
       <use style="fill:#555555;stroke:#555555;stroke-width:0.5;" x="270.288" xlink:href="#m8bc147ca23" y="35.7658125"/>
      </g>
     </g>
     <g id="text_4">
      <!-- Governo e  -->
      <defs>
       <path d="
M59.5156 10.4062
L59.5156 29.9844
L43.4062 29.9844
L43.4062 38.0938
L69.2812 38.0938
L69.2812 6.78125
Q63.5781 2.73438 56.6875 0.65625
Q49.8125 -1.42188 42 -1.42188
Q24.9062 -1.42188 15.25 8.5625
Q5.60938 18.5625 5.60938 36.375
Q5.60938 54.25 15.25 64.2344
Q24.9062 74.2188 42 74.2188
Q49.125 74.2188 55.5469 72.4531
Q61.9688 70.7031 67.3906 67.2812
L67.3906 56.7812
Q61.9219 61.4219 55.7656 63.7656
Q49.6094 66.1094 42.8281 66.1094
Q29.4375 66.1094 22.7188 58.6406
Q16.0156 51.1719 16.0156 36.375
Q16.0156 21.625 22.7188 14.1562
Q29.4375 6.6875 42.8281 6.6875
Q48.0469 6.6875 52.1406 7.59375
Q56.25 8.5 59.5156 10.4062" id="DejaVuSans-47"/>
       <path d="
M2.98438 54.6875
L12.5 54.6875
L29.5938 8.79688
L46.6875 54.6875
L56.2031 54.6875
L35.6875 0
L23.4844 0
z
" id="DejaVuSans-76"/>
      </defs>
      <g style="fill:#555555;" transform="translate(244.72315625 286.40425)scale(0.1 -0.1)">
       <use xlink:href="#DejaVuSans-47"/>
       <use x="77.490234375" xlink:href="#DejaVuSans-6f"/>
       <use x="138.671875" xlink:href="#DejaVuSans-76"/>
       <use x="197.8515625" xlink:href="#DejaVuSans-65"/>
       <use x="259.375" xlink:href="#DejaVuSans-72"/>
       <use x="298.73828125" xlink:href="#DejaVuSans-6e"/>
       <use x="362.1171875" xlink:href="#DejaVuSans-6f"/>
       <use x="423.298828125" xlink:href="#DejaVuSans-20"/>
       <use x="455.0859375" xlink:href="#DejaVuSans-65"/>
       <use x="516.609375" xlink:href="#DejaVuSans-20"/>
      </g>
      <!-- settore  -->
      <g style="fill:#555555;" transform="translate(252.8739375 297.6020625)scale(0.1 -0.1)">
       <use xlink:href="#DejaVuSans-73"/>
       <use x="52.099609375" xlink:href="#DejaVuSans-65"/>
       <use x="113.623046875" xlink:href="#DejaVuSans-74"/>
       <use x="152.83203125" xlink:href="#DejaVuSans-74"/>
       <use x="192.041015625" xlink:href="#DejaVuSans-6f"/>
       <use x="253.22265625" xlink:href="#DejaVuSans-72"/>
       <use x="292.0859375" xlink:href="#DejaVuSans-65"/>
       <use x="353.609375" xlink:href="#DejaVuSans-20"/>
      </g>
      <!-- pubblico -->
      <g style="fill:#555555;" transform="translate(249.73721875 308.799875)scale(0.1 -0.1)">
       <use xlink:href="#DejaVuSans-70"/>
       <use x="63.4765625" xlink:href="#DejaVuSans-75"/>
       <use x="126.85546875" xlink:href="#DejaVuSans-62"/>
       <use x="190.33203125" xlink:href="#DejaVuSans-62"/>
       <use x="253.80859375" xlink:href="#DejaVuSans-6c"/>
       <use x="281.591796875" xlink:href="#DejaVuSans-69"/>
       <use x="309.375" xlink:href="#DejaVuSans-63"/>
       <use x="364.35546875" xlink:href="#DejaVuSans-6f"/>
      </g>
     </g>
    </g>
    <g id="xtick_5">
     <g id="line2d_13">
      <path clip-path="url(#pcf09616d9d)" d="
M332.928 274.806
L332.928 35.7658" style="fill:none;stroke:#cbcbcb;"/>
     </g>
     <g id="line2d_14">
      <g>
       <use style="fill:#555555;stroke:#555555;stroke-width:0.5;" x="332.928" xlink:href="#m8bc147ca23" y="274.8058125"/>
      </g>
     </g>
     <g id="line2d_15">
      <g>
       <use style="fill:#555555;stroke:#555555;stroke-width:0.5;" x="332.928" xlink:href="#m8bc147ca23" y="35.7658125"/>
      </g>
     </g>
     <g id="text_5">
      <!-- Economia  -->
      <defs>
       <path d="
M9.8125 72.9062
L55.9062 72.9062
L55.9062 64.5938
L19.6719 64.5938
L19.6719 43.0156
L54.3906 43.0156
L54.3906 34.7188
L19.6719 34.7188
L19.6719 8.29688
L56.7812 8.29688
L56.7812 0
L9.8125 0
z
" id="DejaVuSans-45"/>
      </defs>
      <g style="fill:#555555;" transform="translate(308.862375 286.40425)scale(0.1 -0.1)">
       <use xlink:href="#DejaVuSans-45"/>
       <use x="63.18359375" xlink:href="#DejaVuSans-63"/>
       <use x="118.1640625" xlink:href="#DejaVuSans-6f"/>
       <use x="179.345703125" xlink:href="#DejaVuSans-6e"/>
       <use x="242.724609375" xlink:href="#DejaVuSans-6f"/>
       <use x="303.90625" xlink:href="#DejaVuSans-6d"/>
       <use x="401.318359375" xlink:href="#DejaVuSans-69"/>
       <use x="429.1015625" xlink:href="#DejaVuSans-61"/>
       <use x="490.380859375" xlink:href="#DejaVuSans-20"/>
      </g>
      <!-- e finanze -->
      <defs>
       <path d="
M37.1094 75.9844
L37.1094 68.5
L28.5156 68.5
Q23.6875 68.5 21.7969 66.5469
Q19.9219 64.5938 19.9219 59.5156
L19.9219 54.6875
L34.7188 54.6875
L34.7188 47.7031
L19.9219 47.7031
L19.9219 0
L10.8906 0
L10.8906 47.7031
L2.29688 47.7031
L2.29688 54.6875
L10.8906 54.6875
L10.8906 58.5
Q10.8906 67.625 15.1406 71.7969
Q19.3906 75.9844 28.6094 75.9844
z
" id="DejaVuSans-66"/>
      </defs>
      <g style="fill:#555555;" transform="translate(310.27721875 297.6020625)scale(0.1 -0.1)">
       <use xlink:href="#DejaVuSans-65"/>
       <use x="61.5234375" xlink:href="#DejaVuSans-20"/>
       <use x="93.310546875" xlink:href="#DejaVuSans-66"/>
       <use x="128.515625" xlink:href="#DejaVuSans-69"/>
       <use x="156.298828125" xlink:href="#DejaVuSans-6e"/>
       <use x="219.677734375" xlink:href="#DejaVuSans-61"/>
       <use x="280.95703125" xlink:href="#DejaVuSans-6e"/>
       <use x="344.3359375" xlink:href="#DejaVuSans-7a"/>
       <use x="396.826171875" xlink:href="#DejaVuSans-65"/>
      </g>
     </g>
    </g>
    <g id="xtick_6">
     <g id="line2d_16">
      <path clip-path="url(#pcf09616d9d)" d="
M395.568 274.806
L395.568 35.7658" style="fill:none;stroke:#cbcbcb;"/>
     </g>
     <g id="line2d_17">
      <g>
       <use style="fill:#555555;stroke:#555555;stroke-width:0.5;" x="395.568" xlink:href="#m8bc147ca23" y="274.8058125"/>
      </g>
     </g>
     <g id="line2d_18">
      <g>
       <use style="fill:#555555;stroke:#555555;stroke-width:0.5;" x="395.568" xlink:href="#m8bc147ca23" y="35.7658125"/>
      </g>
     </g>
     <g id="text_6">
      <!-- Agricoltura -->
      <defs>
       <path d="
M45.4062 27.9844
Q45.4062 37.75 41.375 43.1094
Q37.3594 48.4844 30.0781 48.4844
Q22.8594 48.4844 18.8281 43.1094
Q14.7969 37.75 14.7969 27.9844
Q14.7969 18.2656 18.8281 12.8906
Q22.8594 7.51562 30.0781 7.51562
Q37.3594 7.51562 41.375 12.8906
Q45.4062 18.2656 45.4062 27.9844
M54.3906 6.78125
Q54.3906 -7.17188 48.1875 -13.9844
Q42 -20.7969 29.2031 -20.7969
Q24.4688 -20.7969 20.2656 -20.0938
Q16.0625 -19.3906 12.1094 -17.9219
L12.1094 -9.1875
Q16.0625 -11.3281 19.9219 -12.3438
Q23.7812 -13.375 27.7812 -13.375
Q36.625 -13.375 41.0156 -8.76562
Q45.4062 -4.15625 45.4062 5.17188
L45.4062 9.625
Q42.625 4.78125 38.2812 2.39062
Q33.9375 0 27.875 0
Q17.8281 0 11.6719 7.65625
Q5.51562 15.3281 5.51562 27.9844
Q5.51562 40.6719 11.6719 48.3281
Q17.8281 56 27.875 56
Q33.9375 56 38.2812 53.6094
Q42.625 51.2188 45.4062 46.3906
L45.4062 54.6875
L54.3906 54.6875
z
" id="DejaVuSans-67"/>
      </defs>
      <g style="fill:#555555;" transform="translate(368.5758125 286.40425)scale(0.1 -0.1)">
       <use xlink:href="#DejaVuSans-41"/>
       <use x="68.408203125" xlink:href="#DejaVuSans-67"/>
       <use x="131.884765625" xlink:href="#DejaVuSans-72"/>
       <use x="172.998046875" xlink:href="#DejaVuSans-69"/>
       <use x="200.78125" xlink:href="#DejaVuSans-63"/>
       <use x="255.76171875" xlink:href="#DejaVuSans-6f"/>
       <use x="316.943359375" xlink:href="#DejaVuSans-6c"/>
       <use x="344.7265625" xlink:href="#DejaVuSans-74"/>
       <use x="383.935546875" xlink:href="#DejaVuSans-75"/>
       <use x="447.314453125" xlink:href="#DejaVuSans-72"/>
       <use x="488.427734375" xlink:href="#DejaVuSans-61"/>
      </g>
     </g>
    </g>
    <g id="xtick_7">
     <g id="line2d_19">
      <path clip-path="url(#pcf09616d9d)" d="
M458.208 274.806
L458.208 35.7658" style="fill:none;stroke:#cbcbcb;"/>
     </g>
     <g id="line2d_20">
      <g>
       <use style="fill:#555555;stroke:#555555;stroke-width:0.5;" x="458.208" xlink:href="#m8bc147ca23" y="274.8058125"/>
      </g>
     </g>
     <g id="line2d_21">
      <g>
       <use style="fill:#555555;stroke:#555555;stroke-width:0.5;" x="458.208" xlink:href="#m8bc147ca23" y="35.7658125"/>
      </g>
     </g>
     <g id="text_7">
      <!-- Trasporti -->
      <defs>
       <path d="
M-0.296875 72.9062
L61.375 72.9062
L61.375 64.5938
L35.5 64.5938
L35.5 0
L25.5938 0
L25.5938 64.5938
L-0.296875 64.5938
z
" id="DejaVuSans-54"/>
      </defs>
      <g style="fill:#555555;" transform="translate(436.983 286.40425)scale(0.1 -0.1)">
       <use xlink:href="#DejaVuSans-54"/>
       <use x="46.333984375" xlink:href="#DejaVuSans-72"/>
       <use x="87.447265625" xlink:href="#DejaVuSans-61"/>
       <use x="148.7265625" xlink:href="#DejaVuSans-73"/>
       <use x="200.826171875" xlink:href="#DejaVuSans-70"/>
       <use x="264.302734375" xlink:href="#DejaVuSans-6f"/>
       <use x="325.484375" xlink:href="#DejaVuSans-72"/>
       <use x="366.59765625" xlink:href="#DejaVuSans-74"/>
       <use x="405.806640625" xlink:href="#DejaVuSans-69"/>
      </g>
     </g>
    </g>
    <g id="xtick_8">
     <g id="line2d_22">
      <path clip-path="url(#pcf09616d9d)" d="
M520.848 274.806
L520.848 35.7658" style="fill:none;stroke:#cbcbcb;"/>
     </g>
     <g id="line2d_23">
      <g>
       <use style="fill:#555555;stroke:#555555;stroke-width:0.5;" x="520.848" xlink:href="#m8bc147ca23" y="274.8058125"/>
      </g>
     </g>
     <g id="line2d_24">
      <g>
       <use style="fill:#555555;stroke:#555555;stroke-width:0.5;" x="520.848" xlink:href="#m8bc147ca23" y="35.7658125"/>
      </g>
     </g>
     <g id="text_8">
      <!-- Salute -->
      <defs>
       <path d="
M53.5156 70.5156
L53.5156 60.8906
Q47.9062 63.5781 42.9219 64.8906
Q37.9375 66.2188 33.2969 66.2188
Q25.25 66.2188 20.875 63.0938
Q16.5 59.9688 16.5 54.2031
Q16.5 49.3594 19.4062 46.8906
Q22.3125 44.4375 30.4219 42.9219
L36.375 41.7031
Q47.4062 39.5938 52.6562 34.2969
Q57.9062 29 57.9062 20.125
Q57.9062 9.51562 50.7969 4.04688
Q43.7031 -1.42188 29.9844 -1.42188
Q24.8125 -1.42188 18.9688 -0.25
Q13.1406 0.921875 6.89062 3.21875
L6.89062 13.375
Q12.8906 10.0156 18.6562 8.29688
Q24.4219 6.59375 29.9844 6.59375
Q38.4219 6.59375 43.0156 9.90625
Q47.6094 13.2344 47.6094 19.3906
Q47.6094 24.75 44.3125 27.7812
Q41.0156 30.8125 33.5 32.3281
L27.4844 33.5
Q16.4531 35.6875 11.5156 40.375
Q6.59375 45.0625 6.59375 53.4219
Q6.59375 63.0938 13.4062 68.6562
Q20.2188 74.2188 32.1719 74.2188
Q37.3125 74.2188 42.625 73.2812
Q47.9531 72.3594 53.5156 70.5156" id="DejaVuSans-53"/>
      </defs>
      <g style="fill:#555555;" transform="translate(505.61128125 286.40425)scale(0.1 -0.1)">
       <use xlink:href="#DejaVuSans-53"/>
       <use x="63.4765625" xlink:href="#DejaVuSans-61"/>
       <use x="124.755859375" xlink:href="#DejaVuSans-6c"/>
       <use x="152.5390625" xlink:href="#DejaVuSans-75"/>
       <use x="215.91796875" xlink:href="#DejaVuSans-74"/>
       <use x="255.126953125" xlink:href="#DejaVuSans-65"/>
      </g>
     </g>
    </g>
    <g id="xtick_9">
     <g id="line2d_25">
      <path clip-path="url(#pcf09616d9d)" d="
M583.488 274.806
L583.488 35.7658" style="fill:none;stroke:#cbcbcb;"/>
     </g>
     <g id="line2d_26">
      <g>
       <use style="fill:#555555;stroke:#555555;stroke-width:0.5;" x="583.488" xlink:href="#m8bc147ca23" y="274.8058125"/>
      </g>
     </g>
     <g id="line2d_27">
      <g>
       <use style="fill:#555555;stroke:#555555;stroke-width:0.5;" x="583.488" xlink:href="#m8bc147ca23" y="35.7658125"/>
      </g>
     </g>
     <g id="text_9">
      <!-- Giustizia -->
      <g style="fill:#555555;" transform="translate(562.75909375 286.40425)scale(0.1 -0.1)">
       <use xlink:href="#DejaVuSans-47"/>
       <use x="77.490234375" xlink:href="#DejaVuSans-69"/>
       <use x="105.2734375" xlink:href="#DejaVuSans-75"/>
       <use x="168.65234375" xlink:href="#DejaVuSans-73"/>
       <use x="220.751953125" xlink:href="#DejaVuSans-74"/>
       <use x="259.9609375" xlink:href="#DejaVuSans-69"/>
       <use x="287.744140625" xlink:href="#DejaVuSans-7a"/>
       <use x="340.234375" xlink:href="#DejaVuSans-69"/>
       <use x="368.017578125" xlink:href="#DejaVuSans-61"/>
      </g>
     </g>
    </g>
    <g id="xtick_10">
     <g id="line2d_28">
      <path clip-path="url(#pcf09616d9d)" d="
M646.128 274.806
L646.128 35.7658" style="fill:none;stroke:#cbcbcb;"/>
     </g>
     <g id="line2d_29">
      <g>
       <use style="fill:#555555;stroke:#555555;stroke-width:0.5;" x="646.128" xlink:href="#m8bc147ca23" y="274.8058125"/>
      </g>
     </g>
     <g id="line2d_30">
      <g>
       <use style="fill:#555555;stroke:#555555;stroke-width:0.5;" x="646.128" xlink:href="#m8bc147ca23" y="35.7658125"/>
      </g>
     </g>
     <g id="text_10">
      <!-- Regioni  -->
      <defs>
       <path d="
M44.3906 34.1875
Q47.5625 33.1094 50.5625 29.5938
Q53.5625 26.0781 56.5938 19.9219
L66.6094 0
L56 0
L46.6875 18.7031
Q43.0625 26.0312 39.6719 28.4219
Q36.2812 30.8125 30.4219 30.8125
L19.6719 30.8125
L19.6719 0
L9.8125 0
L9.8125 72.9062
L32.0781 72.9062
Q44.5781 72.9062 50.7344 67.6719
Q56.8906 62.4531 56.8906 51.9062
Q56.8906 45.0156 53.6875 40.4688
Q50.4844 35.9375 44.3906 34.1875
M19.6719 64.7969
L19.6719 38.9219
L32.0781 38.9219
Q39.2031 38.9219 42.8438 42.2188
Q46.4844 45.5156 46.4844 51.9062
Q46.4844 58.2969 42.8438 61.5469
Q39.2031 64.7969 32.0781 64.7969
z
" id="DejaVuSans-52"/>
      </defs>
      <g style="fill:#555555;" transform="translate(628.0905 286.40425)scale(0.1 -0.1)">
       <use xlink:href="#DejaVuSans-52"/>
       <use x="64.982421875" xlink:href="#DejaVuSans-65"/>
       <use x="126.505859375" xlink:href="#DejaVuSans-67"/>
       <use x="189.982421875" xlink:href="#DejaVuSans-69"/>
       <use x="217.765625" xlink:href="#DejaVuSans-6f"/>
       <use x="278.947265625" xlink:href="#DejaVuSans-6e"/>
       <use x="342.326171875" xlink:href="#DejaVuSans-69"/>
       <use x="370.109375" xlink:href="#DejaVuSans-20"/>
      </g>
      <!-- e città -->
      <g style="fill:#555555;" transform="translate(630.793625 297.6020625)scale(0.1 -0.1)">
       <use xlink:href="#DejaVuSans-65"/>
       <use x="61.5234375" xlink:href="#DejaVuSans-20"/>
       <use x="93.310546875" xlink:href="#DejaVuSans-63"/>
       <use x="148.291015625" xlink:href="#DejaVuSans-69"/>
       <use x="176.07421875" xlink:href="#DejaVuSans-74"/>
       <use x="215.283203125" xlink:href="#DejaVuSans-74"/>
       <use x="254.4921875" xlink:href="#DejaVuSans-e0"/>
      </g>
     </g>
    </g>
    <g id="text_11">
     <!-- Gruppo -->
     <g style="fill:#555555;" transform="translate(349.886125 321.9583125)scale(0.08 -0.08)">
      <use xlink:href="#DejaVuSans-47"/>
      <use x="77.490234375" xlink:href="#DejaVuSans-72"/>
      <use x="118.603515625" xlink:href="#DejaVuSans-75"/>
      <use x="181.982421875" xlink:href="#DejaVuSans-70"/>
      <use x="245.458984375" xlink:href="#DejaVuSans-70"/>
      <use x="308.935546875" xlink:href="#DejaVuSans-6f"/>
     </g>
    </g>
   </g>
   <g id="matplotlib.axis_2">
    <g id="ytick_1">
     <g id="line2d_31">
      <path clip-path="url(#pcf09616d9d)" d="
M51.048 274.806
L677.448 274.806" style="fill:none;stroke:#cbcbcb;"/>
     </g>
     <g id="line2d_32">
      <g>
       <use style="fill:#555555;stroke:#555555;stroke-width:0.5;" x="51.048" xlink:href="#m8bc147ca23" y="274.8058125"/>
      </g>
     </g>
     <g id="line2d_33">
      <g>
       <use style="fill:#555555;stroke:#555555;stroke-width:0.5;" x="677.448" xlink:href="#m8bc147ca23" y="274.8058125"/>
      </g>
     </g>
     <g id="text_12">
      <!-- 0 -->
      <defs>
       <path d="
M31.7812 66.4062
Q24.1719 66.4062 20.3281 58.9062
Q16.5 51.4219 16.5 36.375
Q16.5 21.3906 20.3281 13.8906
Q24.1719 6.39062 31.7812 6.39062
Q39.4531 6.39062 43.2812 13.8906
Q47.125 21.3906 47.125 36.375
Q47.125 51.4219 43.2812 58.9062
Q39.4531 66.4062 31.7812 66.4062
M31.7812 74.2188
Q44.0469 74.2188 50.5156 64.5156
Q56.9844 54.8281 56.9844 36.375
Q56.9844 17.9688 50.5156 8.26562
Q44.0469 -1.42188 31.7812 -1.42188
Q19.5312 -1.42188 13.0625 8.26562
Q6.59375 17.9688 6.59375 36.375
Q6.59375 54.8281 13.0625 64.5156
Q19.5312 74.2188 31.7812 74.2188" id="DejaVuSans-30"/>
      </defs>
      <g style="fill:#555555;" transform="translate(42.0089375 277.5651875)scale(0.1 -0.1)">
       <use xlink:href="#DejaVuSans-30"/>
      </g>
     </g>
    </g>
    <g id="ytick_2">
     <g id="line2d_34">
      <path clip-path="url(#pcf09616d9d)" d="
M51.048 215.046
L677.448 215.046" style="fill:none;stroke:#cbcbcb;"/>
     </g>
     <g id="line2d_35">
      <g>
       <use style="fill:#555555;stroke:#555555;stroke-width:0.5;" x="51.048" xlink:href="#m8bc147ca23" y="215.0458125"/>
      </g>
     </g>
     <g id="line2d_36">
      <g>
       <use style="fill:#555555;stroke:#555555;stroke-width:0.5;" x="677.448" xlink:href="#m8bc147ca23" y="215.0458125"/>
      </g>
     </g>
     <g id="text_13">
      <!-- 500 -->
      <defs>
       <path d="
M10.7969 72.9062
L49.5156 72.9062
L49.5156 64.5938
L19.8281 64.5938
L19.8281 46.7344
Q21.9688 47.4688 24.1094 47.8281
Q26.2656 48.1875 28.4219 48.1875
Q40.625 48.1875 47.75 41.5
Q54.8906 34.8125 54.8906 23.3906
Q54.8906 11.625 47.5625 5.09375
Q40.2344 -1.42188 26.9062 -1.42188
Q22.3125 -1.42188 17.5469 -0.640625
Q12.7969 0.140625 7.71875 1.70312
L7.71875 11.625
Q12.1094 9.23438 16.7969 8.0625
Q21.4844 6.89062 26.7031 6.89062
Q35.1562 6.89062 40.0781 11.3281
Q45.0156 15.7656 45.0156 23.3906
Q45.0156 31 40.0781 35.4375
Q35.1562 39.8906 26.7031 39.8906
Q22.75 39.8906 18.8125 39.0156
Q14.8906 38.1406 10.7969 36.2812
z
" id="DejaVuSans-35"/>
      </defs>
      <g style="fill:#555555;" transform="translate(29.3964375 217.8051875)scale(0.1 -0.1)">
       <use xlink:href="#DejaVuSans-35"/>
       <use x="63.623046875" xlink:href="#DejaVuSans-30"/>
       <use x="127.24609375" xlink:href="#DejaVuSans-30"/>
      </g>
     </g>
    </g>
    <g id="ytick_3">
     <g id="line2d_37">
      <path clip-path="url(#pcf09616d9d)" d="
M51.048 155.286
L677.448 155.286" style="fill:none;stroke:#cbcbcb;"/>
     </g>
     <g id="line2d_38">
      <g>
       <use style="fill:#555555;stroke:#555555;stroke-width:0.5;" x="51.048" xlink:href="#m8bc147ca23" y="155.2858125"/>
      </g>
     </g>
     <g id="line2d_39">
      <g>
       <use style="fill:#555555;stroke:#555555;stroke-width:0.5;" x="677.448" xlink:href="#m8bc147ca23" y="155.2858125"/>
      </g>
     </g>
     <g id="text_14">
      <!-- 1000 -->
      <defs>
       <path d="
M12.4062 8.29688
L28.5156 8.29688
L28.5156 63.9219
L10.9844 60.4062
L10.9844 69.3906
L28.4219 72.9062
L38.2812 72.9062
L38.2812 8.29688
L54.3906 8.29688
L54.3906 0
L12.4062 0
z
" id="DejaVuSans-31"/>
      </defs>
      <g style="fill:#555555;" transform="translate(23.3605 158.0451875)scale(0.1 -0.1)">
       <use xlink:href="#DejaVuSans-31"/>
       <use x="63.623046875" xlink:href="#DejaVuSans-30"/>
       <use x="127.24609375" xlink:href="#DejaVuSans-30"/>
       <use x="190.869140625" xlink:href="#DejaVuSans-30"/>
      </g>
     </g>
    </g>
    <g id="ytick_4">
     <g id="line2d_40">
      <path clip-path="url(#pcf09616d9d)" d="
M51.048 95.5258
L677.448 95.5258" style="fill:none;stroke:#cbcbcb;"/>
     </g>
     <g id="line2d_41">
      <g>
       <use style="fill:#555555;stroke:#555555;stroke-width:0.5;" x="51.048" xlink:href="#m8bc147ca23" y="95.5258125"/>
      </g>
     </g>
     <g id="line2d_42">
      <g>
       <use style="fill:#555555;stroke:#555555;stroke-width:0.5;" x="677.448" xlink:href="#m8bc147ca23" y="95.5258125"/>
      </g>
     </g>
     <g id="text_15">
      <!-- 1500 -->
      <g style="fill:#555555;" transform="translate(23.3605 98.2851875)scale(0.1 -0.1)">
       <use xlink:href="#DejaVuSans-31"/>
       <use x="63.623046875" xlink:href="#DejaVuSans-35"/>
       <use x="127.24609375" xlink:href="#DejaVuSans-30"/>
       <use x="190.869140625" xlink:href="#DejaVuSans-30"/>
      </g>
     </g>
    </g>
    <g id="ytick_5">
     <g id="line2d_43">
      <path clip-path="url(#pcf09616d9d)" d="
M51.048 35.7658
L677.448 35.7658" style="fill:none;stroke:#cbcbcb;"/>
     </g>
     <g id="line2d_44">
      <g>
       <use style="fill:#555555;stroke:#555555;stroke-width:0.5;" x="51.048" xlink:href="#m8bc147ca23" y="35.7658125"/>
      </g>
     </g>
     <g id="line2d_45">
      <g>
       <use style="fill:#555555;stroke:#555555;stroke-width:0.5;" x="677.448" xlink:href="#m8bc147ca23" y="35.7658125"/>
      </g>
     </g>
     <g id="text_16">
      <!-- 2000 -->
      <defs>
       <path d="
M19.1875 8.29688
L53.6094 8.29688
L53.6094 0
L7.32812 0
L7.32812 8.29688
Q12.9375 14.1094 22.625 23.8906
Q32.3281 33.6875 34.8125 36.5312
Q39.5469 41.8438 41.4219 45.5312
Q43.3125 49.2188 43.3125 52.7812
Q43.3125 58.5938 39.2344 62.25
Q35.1562 65.9219 28.6094 65.9219
Q23.9688 65.9219 18.8125 64.3125
Q13.6719 62.7031 7.8125 59.4219
L7.8125 69.3906
Q13.7656 71.7812 18.9375 73
Q24.125 74.2188 28.4219 74.2188
Q39.75 74.2188 46.4844 68.5469
Q53.2188 62.8906 53.2188 53.4219
Q53.2188 48.9219 51.5312 44.8906
Q49.8594 40.875 45.4062 35.4062
Q44.1875 33.9844 37.6406 27.2188
Q31.1094 20.4531 19.1875 8.29688" id="DejaVuSans-32"/>
      </defs>
      <g style="fill:#555555;" transform="translate(22.994875 38.5251875)scale(0.1 -0.1)">
       <use xlink:href="#DejaVuSans-32"/>
       <use x="63.623046875" xlink:href="#DejaVuSans-30"/>
       <use x="127.24609375" xlink:href="#DejaVuSans-30"/>
       <use x="190.869140625" xlink:href="#DejaVuSans-30"/>
      </g>
     </g>
    </g>
    <g id="text_17">
     <!-- n. dataset -->
     <defs>
      <path d="
M45.4062 46.3906
L45.4062 75.9844
L54.3906 75.9844
L54.3906 0
L45.4062 0
L45.4062 8.20312
Q42.5781 3.32812 38.25 0.953125
Q33.9375 -1.42188 27.875 -1.42188
Q17.9688 -1.42188 11.7344 6.48438
Q5.51562 14.4062 5.51562 27.2969
Q5.51562 40.1875 11.7344 48.0938
Q17.9688 56 27.875 56
Q33.9375 56 38.25 53.625
Q42.5781 51.2656 45.4062 46.3906
M14.7969 27.2969
Q14.7969 17.3906 18.875 11.75
Q22.9531 6.10938 30.0781 6.10938
Q37.2031 6.10938 41.2969 11.75
Q45.4062 17.3906 45.4062 27.2969
Q45.4062 37.2031 41.2969 42.8438
Q37.2031 48.4844 30.0781 48.4844
Q22.9531 48.4844 18.875 42.8438
Q14.7969 37.2031 14.7969 27.2969" id="DejaVuSans-64"/>
      <path d="
M10.6875 12.4062
L21 12.4062
L21 0
L10.6875 0
z
" id="DejaVuSans-2e"/>
     </defs>
     <g style="fill:#555555;" transform="translate(16.331125 175.3908125)rotate(-90.0)scale(0.08 -0.08)">
      <use xlink:href="#DejaVuSans-6e"/>
      <use x="63.37890625" xlink:href="#DejaVuSans-2e"/>
      <use x="95.166015625" xlink:href="#DejaVuSans-20"/>
      <use x="126.953125" xlink:href="#DejaVuSans-64"/>
      <use x="190.4296875" xlink:href="#DejaVuSans-61"/>
      <use x="251.708984375" xlink:href="#DejaVuSans-74"/>
      <use x="290.91796875" xlink:href="#DejaVuSans-61"/>
      <use x="352.197265625" xlink:href="#DejaVuSans-73"/>
      <use x="404.296875" xlink:href="#DejaVuSans-65"/>
      <use x="465.8203125" xlink:href="#DejaVuSans-74"/>
     </g>
    </g>
   </g>
   <g id="patch_3">
    <path clip-path="url(#pcf09616d9d)" d="
M66.708 274.806
L98.028 274.806
L98.028 55.8452
L66.708 55.8452
z
" style="fill:#ff0000;stroke:#f0f0f0;stroke-linejoin:miter;stroke-width:0.5;"/>
   </g>
   <g id="patch_4">
    <path clip-path="url(#pcf09616d9d)" d="
M129.348 274.806
L160.668 274.806
L160.668 61.7017
L129.348 61.7017
z
" style="fill:#ff0000;stroke:#f0f0f0;stroke-linejoin:miter;stroke-width:0.5;"/>
   </g>
   <g id="patch_5">
    <path clip-path="url(#pcf09616d9d)" d="
M191.988 274.806
L223.308 274.806
L223.308 141.182
L191.988 141.182
z
" style="fill:#ff0000;stroke:#f0f0f0;stroke-linejoin:miter;stroke-width:0.5;"/>
   </g>
   <g id="patch_6">
    <path clip-path="url(#pcf09616d9d)" d="
M254.628 274.806
L285.948 274.806
L285.948 174.887
L254.628 174.887
z
" style="fill:#ff0000;stroke:#f0f0f0;stroke-linejoin:miter;stroke-width:0.5;"/>
   </g>
   <g id="patch_7">
    <path clip-path="url(#pcf09616d9d)" d="
M317.268 274.806
L348.588 274.806
L348.588 215.046
L317.268 215.046
z
" style="fill:#ff0000;stroke:#f0f0f0;stroke-linejoin:miter;stroke-width:0.5;"/>
   </g>
   <g id="patch_8">
    <path clip-path="url(#pcf09616d9d)" d="
M379.908 274.806
L411.228 274.806
L411.228 259.866
L379.908 259.866
z
" style="fill:#ff0000;stroke:#f0f0f0;stroke-linejoin:miter;stroke-width:0.5;"/>
   </g>
   <g id="patch_9">
    <path clip-path="url(#pcf09616d9d)" d="
M442.548 274.806
L473.868 274.806
L473.868 264.049
L442.548 264.049
z
" style="fill:#ff0000;stroke:#f0f0f0;stroke-linejoin:miter;stroke-width:0.5;"/>
   </g>
   <g id="patch_10">
    <path clip-path="url(#pcf09616d9d)" d="
M505.188 274.806
L536.508 274.806
L536.508 267.635
L505.188 267.635
z
" style="fill:#ff0000;stroke:#f0f0f0;stroke-linejoin:miter;stroke-width:0.5;"/>
   </g>
   <g id="patch_11">
    <path clip-path="url(#pcf09616d9d)" d="
M567.828 274.806
L599.148 274.806
L599.148 270.623
L567.828 270.623
z
" style="fill:#ff0000;stroke:#f0f0f0;stroke-linejoin:miter;stroke-width:0.5;"/>
   </g>
   <g id="patch_12">
    <path clip-path="url(#pcf09616d9d)" d="
M630.468 274.806
L661.788 274.806
L661.788 270.623
L630.468 270.623
z
" style="fill:#ff0000;stroke:#f0f0f0;stroke-linejoin:miter;stroke-width:0.5;"/>
   </g>
   <g id="line2d_46">
    <path clip-path="url(#pcf09616d9d)" d="
M51.048 274.806
L677.448 274.806" style="fill:none;opacity:0.7;stroke:#000000;stroke-width:4;"/>
   </g>
   <g id="patch_13">
    <path d="
M51.048 35.7658
L677.448 35.7658" style="fill:none;stroke:#f0f0f0;stroke-linecap:square;stroke-linejoin:miter;stroke-width:3.0;"/>
   </g>
   <g id="patch_14">
    <path d="
M677.448 274.806
L677.448 35.7658" style="fill:none;stroke:#f0f0f0;stroke-linecap:square;stroke-linejoin:miter;stroke-width:3.0;"/>
   </g>
   <g id="patch_15">
    <path d="
M51.048 274.806
L677.448 274.806" style="fill:none;stroke:#f0f0f0;stroke-linecap:square;stroke-linejoin:miter;stroke-width:3.0;"/>
   </g>
   <g id="patch_16">
    <path d="
M51.048 274.806
L51.048 35.7658" style="fill:none;stroke:#f0f0f0;stroke-linecap:square;stroke-linejoin:miter;stroke-width:3.0;"/>
   </g>
   <g id="text_18">
    <!-- 1832 -->
    <defs>
     <path d="
M31.7812 34.625
Q24.75 34.625 20.7188 30.8594
Q16.7031 27.0938 16.7031 20.5156
Q16.7031 13.9219 20.7188 10.1562
Q24.75 6.39062 31.7812 6.39062
Q38.8125 6.39062 42.8594 10.1719
Q46.9219 13.9688 46.9219 20.5156
Q46.9219 27.0938 42.8906 30.8594
Q38.875 34.625 31.7812 34.625
M21.9219 38.8125
Q15.5781 40.375 12.0312 44.7188
Q8.5 49.0781 8.5 55.3281
Q8.5 64.0625 14.7188 69.1406
Q20.9531 74.2188 31.7812 74.2188
Q42.6719 74.2188 48.875 69.1406
Q55.0781 64.0625 55.0781 55.3281
Q55.0781 49.0781 51.5312 44.7188
Q48 40.375 41.7031 38.8125
Q48.8281 37.1562 52.7969 32.3125
Q56.7812 27.4844 56.7812 20.5156
Q56.7812 9.90625 50.3125 4.23438
Q43.8438 -1.42188 31.7812 -1.42188
Q19.7344 -1.42188 13.25 4.23438
Q6.78125 9.90625 6.78125 20.5156
Q6.78125 27.4844 10.7812 32.3125
Q14.7969 37.1562 21.9219 38.8125
M18.3125 54.3906
Q18.3125 48.7344 21.8438 45.5625
Q25.3906 42.3906 31.7812 42.3906
Q38.1406 42.3906 41.7188 45.5625
Q45.3125 48.7344 45.3125 54.3906
Q45.3125 60.0625 41.7188 63.2344
Q38.1406 66.4062 31.7812 66.4062
Q25.3906 66.4062 21.8438 63.2344
Q18.3125 60.0625 18.3125 54.3906" id="DejaVuSans-38"/>
     <path d="
M40.5781 39.3125
Q47.6562 37.7969 51.625 33
Q55.6094 28.2188 55.6094 21.1875
Q55.6094 10.4062 48.1875 4.48438
Q40.7656 -1.42188 27.0938 -1.42188
Q22.5156 -1.42188 17.6562 -0.515625
Q12.7969 0.390625 7.625 2.20312
L7.625 11.7188
Q11.7188 9.32812 16.5938 8.10938
Q21.4844 6.89062 26.8125 6.89062
Q36.0781 6.89062 40.9375 10.5469
Q45.7969 14.2031 45.7969 21.1875
Q45.7969 27.6406 41.2812 31.2656
Q36.7656 34.9062 28.7188 34.9062
L20.2188 34.9062
L20.2188 43.0156
L29.1094 43.0156
Q36.375 43.0156 40.2344 45.9219
Q44.0938 48.8281 44.0938 54.2969
Q44.0938 59.9062 40.1094 62.9062
Q36.1406 65.9219 28.7188 65.9219
Q24.6562 65.9219 20.0156 65.0312
Q15.375 64.1562 9.8125 62.3125
L9.8125 71.0938
Q15.4375 72.6562 20.3438 73.4375
Q25.25 74.2188 29.5938 74.2188
Q40.8281 74.2188 47.3594 69.1094
Q53.9062 64.0156 53.9062 55.3281
Q53.9062 49.2656 50.4375 45.0938
Q46.9688 40.9219 40.5781 39.3125" id="DejaVuSans-33"/>
    </defs>
    <g transform="translate(71.1222 52.2338068)scale(0.09 -0.09)">
     <use xlink:href="#DejaVuSans-31"/>
     <use x="63.623046875" xlink:href="#DejaVuSans-38"/>
     <use x="127.24609375" xlink:href="#DejaVuSans-33"/>
     <use x="190.869140625" xlink:href="#DejaVuSans-32"/>
    </g>
   </g>
   <g id="text_19">
    <!-- 1783 -->
    <defs>
     <path d="
M8.20312 72.9062
L55.0781 72.9062
L55.0781 68.7031
L28.6094 0
L18.3125 0
L43.2188 64.5938
L8.20312 64.5938
z
" id="DejaVuSans-37"/>
    </defs>
    <g transform="translate(133.9854 58.1195692)scale(0.09 -0.09)">
     <use xlink:href="#DejaVuSans-31"/>
     <use x="63.623046875" xlink:href="#DejaVuSans-37"/>
     <use x="127.24609375" xlink:href="#DejaVuSans-38"/>
     <use x="190.869140625" xlink:href="#DejaVuSans-33"/>
    </g>
   </g>
   <g id="text_20">
    <!-- 1118 -->
    <g transform="translate(196.885865625 137.9977732)scale(0.09 -0.09)">
     <use xlink:href="#DejaVuSans-31"/>
     <use x="63.623046875" xlink:href="#DejaVuSans-31"/>
     <use x="127.24609375" xlink:href="#DejaVuSans-31"/>
     <use x="190.869140625" xlink:href="#DejaVuSans-38"/>
    </g>
   </g>
   <g id="text_21">
    <!-- 836 -->
    <defs>
     <path d="
M33.0156 40.375
Q26.375 40.375 22.4844 35.8281
Q18.6094 31.2969 18.6094 23.3906
Q18.6094 15.5312 22.4844 10.9531
Q26.375 6.39062 33.0156 6.39062
Q39.6562 6.39062 43.5312 10.9531
Q47.4062 15.5312 47.4062 23.3906
Q47.4062 31.2969 43.5312 35.8281
Q39.6562 40.375 33.0156 40.375
M52.5938 71.2969
L52.5938 62.3125
Q48.875 64.0625 45.0938 64.9844
Q41.3125 65.9219 37.5938 65.9219
Q27.8281 65.9219 22.6719 59.3281
Q17.5312 52.7344 16.7969 39.4062
Q19.6719 43.6562 24.0156 45.9219
Q28.375 48.1875 33.5938 48.1875
Q44.5781 48.1875 50.9531 41.5156
Q57.3281 34.8594 57.3281 23.3906
Q57.3281 12.1562 50.6875 5.35938
Q44.0469 -1.42188 33.0156 -1.42188
Q20.3594 -1.42188 13.6719 8.26562
Q6.98438 17.9688 6.98438 36.375
Q6.98438 53.6562 15.1875 63.9375
Q23.3906 74.2188 37.2031 74.2188
Q40.9219 74.2188 44.7031 73.4844
Q48.4844 72.75 52.5938 71.2969" id="DejaVuSans-36"/>
    </defs>
    <g transform="translate(262.488440625 171.8709364)scale(0.09 -0.09)">
     <use xlink:href="#DejaVuSans-38"/>
     <use x="63.623046875" xlink:href="#DejaVuSans-33"/>
     <use x="127.24609375" xlink:href="#DejaVuSans-36"/>
    </g>
   </g>
   <g id="text_22">
    <!-- 500 -->
    <g transform="translate(325.499296875 212.23045)scale(0.09 -0.09)">
     <use xlink:href="#DejaVuSans-35"/>
     <use x="63.623046875" xlink:href="#DejaVuSans-30"/>
     <use x="127.24609375" xlink:href="#DejaVuSans-30"/>
    </g>
   </g>
   <g id="text_23">
    <!-- 125 -->
    <g transform="translate(388.69366875 257.27455)scale(0.09 -0.09)">
     <use xlink:href="#DejaVuSans-31"/>
     <use x="63.623046875" xlink:href="#DejaVuSans-32"/>
     <use x="127.24609375" xlink:href="#DejaVuSans-35"/>
    </g>
   </g>
   <g id="text_24">
    <!-- 90 -->
    <defs>
     <path d="
M10.9844 1.51562
L10.9844 10.5
Q14.7031 8.73438 18.5 7.8125
Q22.3125 6.89062 25.9844 6.89062
Q35.75 6.89062 40.8906 13.4531
Q46.0469 20.0156 46.7812 33.4062
Q43.9531 29.2031 39.5938 26.9531
Q35.25 24.7031 29.9844 24.7031
Q19.0469 24.7031 12.6719 31.3125
Q6.29688 37.9375 6.29688 49.4219
Q6.29688 60.6406 12.9375 67.4219
Q19.5781 74.2188 30.6094 74.2188
Q43.2656 74.2188 49.9219 64.5156
Q56.5938 54.8281 56.5938 36.375
Q56.5938 19.1406 48.4062 8.85938
Q40.2344 -1.42188 26.4219 -1.42188
Q22.7031 -1.42188 18.8906 -0.6875
Q15.0938 0.046875 10.9844 1.51562
M30.6094 32.4219
Q37.25 32.4219 41.125 36.9531
Q45.0156 41.5 45.0156 49.4219
Q45.0156 57.2812 41.125 61.8438
Q37.25 66.4062 30.6094 66.4062
Q23.9688 66.4062 20.0938 61.8438
Q16.2188 57.2812 16.2188 49.4219
Q16.2188 41.5 20.0938 36.9531
Q23.9688 32.4219 30.6094 32.4219" id="DejaVuSans-39"/>
    </defs>
    <g transform="translate(454.2048375 261.478666)scale(0.09 -0.09)">
     <use xlink:href="#DejaVuSans-39"/>
     <use x="63.623046875" xlink:href="#DejaVuSans-30"/>
    </g>
   </g>
   <g id="text_25">
    <!-- 60 -->
    <g transform="translate(517.188975 265.082194)scale(0.09 -0.09)">
     <use xlink:href="#DejaVuSans-36"/>
     <use x="63.623046875" xlink:href="#DejaVuSans-30"/>
    </g>
   </g>
   <g id="text_26">
    <!-- 35 -->
    <g transform="translate(580.265221875 268.085134)scale(0.09 -0.09)">
     <use xlink:href="#DejaVuSans-33"/>
     <use x="63.623046875" xlink:href="#DejaVuSans-35"/>
    </g>
   </g>
   <g id="text_27">
    <!-- 35 -->
    <g transform="translate(643.218421875 268.085134)scale(0.09 -0.09)">
     <use xlink:href="#DejaVuSans-33"/>
     <use x="63.623046875" xlink:href="#DejaVuSans-35"/>
    </g>
   </g>
   <g id="text_28">
    <!-- I dati aperti della Pubblica Amministrazione -->
    <defs>
     <path d="
M32.9062 24.6094
Q27.4375 24.6094 24.6719 22.75
Q21.9219 20.9062 21.9219 17.2812
Q21.9219 13.9688 24.1406 12.0781
Q26.375 10.2031 30.3281 10.2031
Q35.25 10.2031 38.625 13.7344
Q42 17.2812 42 22.6094
L42 24.6094
z

M59.625 31.2031
L59.625 0
L42 0
L42 8.10938
Q38.4844 3.125 34.0781 0.84375
Q29.6875 -1.42188 23.3906 -1.42188
Q14.8906 -1.42188 9.59375 3.53125
Q4.29688 8.5 4.29688 16.4062
Q4.29688 26.0312 10.9062 30.5156
Q17.5312 35.0156 31.6875 35.0156
L42 35.0156
L42 36.375
Q42 40.5312 38.7188 42.4531
Q35.4531 44.3906 28.5156 44.3906
Q22.9062 44.3906 18.0625 43.2656
Q13.2344 42.1406 9.07812 39.8906
L9.07812 53.2188
Q14.7031 54.5938 20.3594 55.2969
Q26.0312 56 31.6875 56
Q46.4844 56 53.0469 50.1719
Q59.625 44.3438 59.625 31.2031" id="DejaVuSans-Bold-61"/>
     <path d="
M49.0312 39.7969
Q46.7344 40.875 44.4531 41.375
Q42.1875 41.8906 39.8906 41.8906
Q33.1562 41.8906 29.5156 37.5625
Q25.875 33.25 25.875 25.2031
L25.875 0
L8.40625 0
L8.40625 54.6875
L25.875 54.6875
L25.875 45.7031
Q29.25 51.0781 33.6094 53.5312
Q37.9844 56 44.0938 56
Q44.9688 56 45.9844 55.9219
Q47.0156 55.8594 48.9688 55.6094
z
" id="DejaVuSans-Bold-72"/>
     <path d="
M9.1875 72.9062
L27.9844 72.9062
L27.9844 0
L9.1875 0
z
" id="DejaVuSans-Bold-49"/>
     <path d="
M37.5 11.2812
Q43.1094 11.2812 46.0625 15.375
Q49.0312 19.4844 49.0312 27.2969
Q49.0312 35.1094 46.0625 39.2031
Q43.1094 43.3125 37.5 43.3125
Q31.8906 43.3125 28.875 39.1875
Q25.875 35.0625 25.875 27.2969
Q25.875 19.5312 28.875 15.4062
Q31.8906 11.2812 37.5 11.2812
M25.875 46.6875
Q29.5 51.4688 33.8906 53.7344
Q38.2812 56 44 56
Q54.1094 56 60.5938 47.9688
Q67.0938 39.9375 67.0938 27.2969
Q67.0938 14.6562 60.5938 6.60938
Q54.1094 -1.42188 44 -1.42188
Q38.2812 -1.42188 33.8906 0.84375
Q29.5 3.125 25.875 7.90625
L25.875 0
L8.40625 0
L8.40625 75.9844
L25.875 75.9844
z
" id="DejaVuSans-Bold-62"/>
     <path d="
M25.875 7.90625
L25.875 -20.7969
L8.40625 -20.7969
L8.40625 54.6875
L25.875 54.6875
L25.875 46.6875
Q29.5 51.4688 33.8906 53.7344
Q38.2812 56 44 56
Q54.1094 56 60.5938 47.9688
Q67.0938 39.9375 67.0938 27.2969
Q67.0938 14.6562 60.5938 6.60938
Q54.1094 -1.42188 44 -1.42188
Q38.2812 -1.42188 33.8906 0.84375
Q29.5 3.125 25.875 7.90625
M37.5 43.3125
Q31.8906 43.3125 28.875 39.1875
Q25.875 35.0625 25.875 27.2969
Q25.875 19.5312 28.875 15.4062
Q31.8906 11.2812 37.5 11.2812
Q43.1094 11.2812 46.0625 15.375
Q49.0312 19.4844 49.0312 27.2969
Q49.0312 35.1094 46.0625 39.2031
Q43.1094 43.3125 37.5 43.3125" id="DejaVuSans-Bold-70"/>
     <path d="
M45.6094 46.6875
L45.6094 75.9844
L63.1875 75.9844
L63.1875 0
L45.6094 0
L45.6094 7.90625
Q42 3.07812 37.6406 0.828125
Q33.2969 -1.42188 27.5938 -1.42188
Q17.4844 -1.42188 10.9844 6.60938
Q4.5 14.6562 4.5 27.2969
Q4.5 39.9375 10.9844 47.9688
Q17.4844 56 27.5938 56
Q33.25 56 37.625 53.7344
Q42 51.4688 45.6094 46.6875
M34.0781 11.2812
Q39.7031 11.2812 42.6562 15.375
Q45.6094 19.4844 45.6094 27.2969
Q45.6094 35.1094 42.6562 39.2031
Q39.7031 43.3125 34.0781 43.3125
Q28.5156 43.3125 25.5625 39.2031
Q22.6094 35.1094 22.6094 27.2969
Q22.6094 19.4844 25.5625 15.375
Q28.5156 11.2812 34.0781 11.2812" id="DejaVuSans-Bold-64"/>
     <path d="
M27.4844 70.2188
L27.4844 54.6875
L45.5156 54.6875
L45.5156 42.1875
L27.4844 42.1875
L27.4844 19
Q27.4844 15.1875 29 13.8438
Q30.5156 12.5 35.0156 12.5
L44 12.5
L44 0
L29 0
Q18.6562 0 14.3281 4.3125
Q10.0156 8.64062 10.0156 19
L10.0156 42.1875
L1.3125 42.1875
L1.3125 54.6875
L10.0156 54.6875
L10.0156 70.2188
z
" id="DejaVuSans-Bold-74"/>
     <path d="
M7.8125 21.2969
L7.8125 54.6875
L25.3906 54.6875
L25.3906 49.2188
Q25.3906 44.7812 25.3438 38.0625
Q25.2969 31.3438 25.2969 29.1094
Q25.2969 22.5156 25.6406 19.6094
Q25.9844 16.7031 26.8125 15.375
Q27.875 13.6719 29.6094 12.7344
Q31.3438 11.8125 33.5938 11.8125
Q39.0625 11.8125 42.1875 16.0156
Q45.3125 20.2188 45.3125 27.6875
L45.3125 54.6875
L62.7969 54.6875
L62.7969 0
L45.3125 0
L45.3125 7.90625
Q41.3594 3.125 36.9375 0.84375
Q32.5156 -1.42188 27.2031 -1.42188
Q17.7188 -1.42188 12.7656 4.39062
Q7.8125 10.2031 7.8125 21.2969" id="DejaVuSans-Bold-75"/>
     <path d="
M8.40625 54.6875
L25.875 54.6875
L25.875 0
L8.40625 0
z

M8.40625 75.9844
L25.875 75.9844
L25.875 61.7188
L8.40625 61.7188
z
" id="DejaVuSans-Bold-69"/>
     <path d="
M53.4219 13.2812
L24.0312 13.2812
L19.3906 0
L0.484375 0
L27.4844 72.9062
L49.9062 72.9062
L76.9062 0
L58.0156 0
z

M28.7188 26.8125
L48.6875 26.8125
L38.7188 55.8125
z
" id="DejaVuSans-Bold-41"/>
     <path id="DejaVuSans-Bold-20"/>
     <path d="
M9.1875 72.9062
L40.375 72.9062
Q54.2969 72.9062 61.7344 66.7188
Q69.1875 60.5469 69.1875 49.125
Q69.1875 37.6406 61.7344 31.4688
Q54.2969 25.2969 40.375 25.2969
L27.9844 25.2969
L27.9844 0
L9.1875 0
z

M27.9844 59.2812
L27.9844 38.9219
L38.375 38.9219
Q43.8438 38.9219 46.8281 41.5781
Q49.8125 44.2344 49.8125 49.125
Q49.8125 54 46.8281 56.6406
Q43.8438 59.2812 38.375 59.2812
z
" id="DejaVuSans-Bold-50"/>
     <path d="
M8.40625 75.9844
L25.875 75.9844
L25.875 0
L8.40625 0
z
" id="DejaVuSans-Bold-6c"/>
     <path d="
M5.71875 54.6875
L53.4219 54.6875
L53.4219 42.4844
L24.6094 12.5
L53.4219 12.5
L53.4219 0
L4.5 0
L4.5 12.2031
L33.2969 42.1875
L5.71875 42.1875
z
" id="DejaVuSans-Bold-7a"/>
     <path d="
M63.375 33.2969
L63.375 0
L45.7969 0
L45.7969 5.42188
L45.7969 25.4844
Q45.7969 32.5625 45.4844 35.25
Q45.1719 37.9375 44.3906 39.2031
Q43.3594 40.9219 41.5938 41.875
Q39.8438 42.8281 37.5938 42.8281
Q32.125 42.8281 29 38.5938
Q25.875 34.375 25.875 26.9062
L25.875 0
L8.40625 0
L8.40625 54.6875
L25.875 54.6875
L25.875 46.6875
Q29.8281 51.4688 34.2656 53.7344
Q38.7188 56 44.0938 56
Q53.5625 56 58.4688 50.1875
Q63.375 44.3906 63.375 33.2969" id="DejaVuSans-Bold-6e"/>
     <path d="
M59.0781 45.6094
Q62.4062 50.6875 66.9688 53.3438
Q71.5312 56 77 56
Q86.4219 56 91.3594 50.1875
Q96.2969 44.3906 96.2969 33.2969
L96.2969 0
L78.7188 0
L78.7188 28.5156
Q78.7656 29.1562 78.7812 29.8281
Q78.8125 30.5156 78.8125 31.7812
Q78.8125 37.5938 77.0938 40.2031
Q75.3906 42.8281 71.5781 42.8281
Q66.6094 42.8281 63.8906 38.7188
Q61.1875 34.625 61.0781 26.8594
L61.0781 0
L43.5 0
L43.5 28.5156
Q43.5 37.5938 41.9375 40.2031
Q40.375 42.8281 36.375 42.8281
Q31.3438 42.8281 28.6094 38.7031
Q25.875 34.5781 25.875 26.9062
L25.875 0
L8.29688 0
L8.29688 54.6875
L25.875 54.6875
L25.875 46.6875
Q29.1094 51.3125 33.2812 53.6562
Q37.4531 56 42.4844 56
Q48.1406 56 52.4844 53.2656
Q56.8438 50.5312 59.0781 45.6094" id="DejaVuSans-Bold-6d"/>
     <path d="
M52.5938 52.9844
L52.5938 38.7188
Q49.0312 41.1562 45.4375 42.3281
Q41.8438 43.5 37.9844 43.5
Q30.6719 43.5 26.5938 39.2344
Q22.5156 34.9688 22.5156 27.2969
Q22.5156 19.625 26.5938 15.3438
Q30.6719 11.0781 37.9844 11.0781
Q42.0938 11.0781 45.7812 12.2969
Q49.4688 13.5312 52.5938 15.9219
L52.5938 1.60938
Q48.4844 0.09375 44.2656 -0.65625
Q40.0469 -1.42188 35.7969 -1.42188
Q21 -1.42188 12.6406 6.17188
Q4.29688 13.7656 4.29688 27.2969
Q4.29688 40.8281 12.6406 48.4062
Q21 56 35.7969 56
Q40.0938 56 44.2656 55.25
Q48.4375 54.5 52.5938 52.9844" id="DejaVuSans-Bold-63"/>
     <path d="
M34.4219 43.5
Q28.6094 43.5 25.5625 39.3281
Q22.5156 35.1562 22.5156 27.2969
Q22.5156 19.4375 25.5625 15.25
Q28.6094 11.0781 34.4219 11.0781
Q40.1406 11.0781 43.1562 15.25
Q46.1875 19.4375 46.1875 27.2969
Q46.1875 35.1562 43.1562 39.3281
Q40.1406 43.5 34.4219 43.5
M34.4219 56
Q48.5312 56 56.4688 48.375
Q64.4062 40.7656 64.4062 27.2969
Q64.4062 13.8125 56.4688 6.1875
Q48.5312 -1.42188 34.4219 -1.42188
Q20.2656 -1.42188 12.2812 6.1875
Q4.29688 13.8125 4.29688 27.2969
Q4.29688 40.7656 12.2812 48.375
Q20.2656 56 34.4219 56" id="DejaVuSans-Bold-6f"/>
     <path d="
M62.9844 27.4844
L62.9844 22.5156
L22.125 22.5156
Q22.75 16.3594 26.5625 13.2812
Q30.375 10.2031 37.2031 10.2031
Q42.7188 10.2031 48.5 11.8438
Q54.2969 13.4844 60.4062 16.7969
L60.4062 3.32812
Q54.2031 0.984375 48 -0.21875
Q41.7969 -1.42188 35.5938 -1.42188
Q20.75 -1.42188 12.5156 6.125
Q4.29688 13.6719 4.29688 27.2969
Q4.29688 40.6719 12.375 48.3281
Q20.4531 56 34.625 56
Q47.5156 56 55.25 48.2344
Q62.9844 40.4844 62.9844 27.4844
M45.0156 33.2969
Q45.0156 38.2812 42.1094 41.3281
Q39.2031 44.3906 34.5156 44.3906
Q29.4375 44.3906 26.2656 41.5312
Q23.0938 38.6719 22.3125 33.2969
z
" id="DejaVuSans-Bold-65"/>
     <path d="
M51.125 52.9844
L51.125 39.7031
Q45.5156 42.0469 40.2812 43.2188
Q35.0625 44.3906 30.4219 44.3906
Q25.4375 44.3906 23.0156 43.1406
Q20.6094 41.8906 20.6094 39.3125
Q20.6094 37.2031 22.4375 36.0781
Q24.2656 34.9688 29 34.4219
L32.0781 33.9844
Q45.5156 32.2812 50.1406 28.375
Q54.7812 24.4688 54.7812 16.1094
Q54.7812 7.375 48.3281 2.96875
Q41.8906 -1.42188 29.1094 -1.42188
Q23.6875 -1.42188 17.8906 -0.5625
Q12.1094 0.296875 6 2
L6 15.2812
Q11.2344 12.75 16.7188 11.4688
Q22.2188 10.2031 27.875 10.2031
Q33.0156 10.2031 35.5938 11.6094
Q38.1875 13.0312 38.1875 15.8281
Q38.1875 18.1719 36.4062 19.3125
Q34.625 20.4531 29.2969 21.0938
L26.2188 21.4844
Q14.5469 22.9531 9.85938 26.9062
Q5.17188 30.8594 5.17188 38.9219
Q5.17188 47.6094 11.125 51.7969
Q17.0938 56 29.3906 56
Q34.2344 56 39.5469 55.2656
Q44.875 54.5469 51.125 52.9844" id="DejaVuSans-Bold-73"/>
    </defs>
    <g style="opacity:0.75;" transform="translate(19.728 17.8378125)scale(0.14 -0.14)">
     <use xlink:href="#DejaVuSans-Bold-49"/>
     <use x="37.20703125" xlink:href="#DejaVuSans-Bold-20"/>
     <use x="72.021484375" xlink:href="#DejaVuSans-Bold-64"/>
     <use x="143.603515625" xlink:href="#DejaVuSans-Bold-61"/>
     <use x="211.083984375" xlink:href="#DejaVuSans-Bold-74"/>
     <use x="258.88671875" xlink:href="#DejaVuSans-Bold-69"/>
     <use x="293.1640625" xlink:href="#DejaVuSans-Bold-20"/>
     <use x="327.978515625" xlink:href="#DejaVuSans-Bold-61"/>
     <use x="395.458984375" xlink:href="#DejaVuSans-Bold-70"/>
     <use x="467.041015625" xlink:href="#DejaVuSans-Bold-65"/>
     <use x="534.86328125" xlink:href="#DejaVuSans-Bold-72"/>
     <use x="584.1796875" xlink:href="#DejaVuSans-Bold-74"/>
     <use x="631.982421875" xlink:href="#DejaVuSans-Bold-69"/>
     <use x="666.259765625" xlink:href="#DejaVuSans-Bold-20"/>
     <use x="701.07421875" xlink:href="#DejaVuSans-Bold-64"/>
     <use x="772.65625" xlink:href="#DejaVuSans-Bold-65"/>
     <use x="840.478515625" xlink:href="#DejaVuSans-Bold-6c"/>
     <use x="874.755859375" xlink:href="#DejaVuSans-Bold-6c"/>
     <use x="909.033203125" xlink:href="#DejaVuSans-Bold-61"/>
     <use x="976.513671875" xlink:href="#DejaVuSans-Bold-20"/>
     <use x="1011.328125" xlink:href="#DejaVuSans-Bold-50"/>
     <use x="1084.61914062" xlink:href="#DejaVuSans-Bold-75"/>
     <use x="1155.81054688" xlink:href="#DejaVuSans-Bold-62"/>
     <use x="1227.39257812" xlink:href="#DejaVuSans-Bold-62"/>
     <use x="1298.97460938" xlink:href="#DejaVuSans-Bold-6c"/>
     <use x="1333.25195312" xlink:href="#DejaVuSans-Bold-69"/>
     <use x="1367.52929688" xlink:href="#DejaVuSans-Bold-63"/>
     <use x="1426.80664062" xlink:href="#DejaVuSans-Bold-61"/>
     <use x="1494.28710938" xlink:href="#DejaVuSans-Bold-20"/>
     <use x="1529.1015625" xlink:href="#DejaVuSans-Bold-41"/>
     <use x="1606.49414062" xlink:href="#DejaVuSans-Bold-6d"/>
     <use x="1710.69335938" xlink:href="#DejaVuSans-Bold-6d"/>
     <use x="1814.89257812" xlink:href="#DejaVuSans-Bold-69"/>
     <use x="1849.16992188" xlink:href="#DejaVuSans-Bold-6e"/>
     <use x="1920.36132812" xlink:href="#DejaVuSans-Bold-69"/>
     <use x="1954.63867188" xlink:href="#DejaVuSans-Bold-73"/>
     <use x="2014.16015625" xlink:href="#DejaVuSans-Bold-74"/>
     <use x="2061.96289062" xlink:href="#DejaVuSans-Bold-72"/>
     <use x="2111.27929688" xlink:href="#DejaVuSans-Bold-61"/>
     <use x="2178.75976562" xlink:href="#DejaVuSans-Bold-7a"/>
     <use x="2236.96289062" xlink:href="#DejaVuSans-Bold-69"/>
     <use x="2271.24023438" xlink:href="#DejaVuSans-Bold-6f"/>
     <use x="2339.94140625" xlink:href="#DejaVuSans-Bold-6e"/>
     <use x="2411.1328125" xlink:href="#DejaVuSans-Bold-65"/>
    </g>
   </g>
   <g id="text_29">
    <!-- Su ca.18.000 dataset solo in 6.400 hanno il campo gruppo popolato. -->
    <defs>
     <path d="
M37.7969 64.3125
L12.8906 25.3906
L37.7969 25.3906
z

M35.2031 72.9062
L47.6094 72.9062
L47.6094 25.3906
L58.0156 25.3906
L58.0156 17.1875
L47.6094 17.1875
L47.6094 0
L37.7969 0
L37.7969 17.1875
L4.89062 17.1875
L4.89062 26.7031
z
" id="DejaVuSans-34"/>
     <path d="
M54.8906 33.0156
L54.8906 0
L45.9062 0
L45.9062 32.7188
Q45.9062 40.4844 42.875 44.3281
Q39.8438 48.1875 33.7969 48.1875
Q26.5156 48.1875 22.3125 43.5469
Q18.1094 38.9219 18.1094 30.9062
L18.1094 0
L9.07812 0
L9.07812 75.9844
L18.1094 75.9844
L18.1094 46.1875
Q21.3438 51.125 25.7031 53.5625
Q30.0781 56 35.7969 56
Q45.2188 56 50.0469 50.1719
Q54.8906 44.3438 54.8906 33.0156" id="DejaVuSans-68"/>
    </defs>
    <g style="opacity:0.85;" transform="translate(19.728 35.7658125)scale(0.1 -0.1)">
     <use xlink:href="#DejaVuSans-53"/>
     <use x="63.4765625" xlink:href="#DejaVuSans-75"/>
     <use x="126.85546875" xlink:href="#DejaVuSans-20"/>
     <use x="158.642578125" xlink:href="#DejaVuSans-63"/>
     <use x="213.623046875" xlink:href="#DejaVuSans-61"/>
     <use x="274.90234375" xlink:href="#DejaVuSans-2e"/>
     <use x="306.689453125" xlink:href="#DejaVuSans-31"/>
     <use x="370.3125" xlink:href="#DejaVuSans-38"/>
     <use x="433.935546875" xlink:href="#DejaVuSans-2e"/>
     <use x="465.72265625" xlink:href="#DejaVuSans-30"/>
     <use x="529.345703125" xlink:href="#DejaVuSans-30"/>
     <use x="592.96875" xlink:href="#DejaVuSans-30"/>
     <use x="656.591796875" xlink:href="#DejaVuSans-20"/>
     <use x="688.37890625" xlink:href="#DejaVuSans-64"/>
     <use x="751.85546875" xlink:href="#DejaVuSans-61"/>
     <use x="813.134765625" xlink:href="#DejaVuSans-74"/>
     <use x="852.34375" xlink:href="#DejaVuSans-61"/>
     <use x="913.623046875" xlink:href="#DejaVuSans-73"/>
     <use x="965.72265625" xlink:href="#DejaVuSans-65"/>
     <use x="1027.24609375" xlink:href="#DejaVuSans-74"/>
     <use x="1066.45507812" xlink:href="#DejaVuSans-20"/>
     <use x="1098.2421875" xlink:href="#DejaVuSans-73"/>
     <use x="1150.34179688" xlink:href="#DejaVuSans-6f"/>
     <use x="1211.5234375" xlink:href="#DejaVuSans-6c"/>
     <use x="1239.30664062" xlink:href="#DejaVuSans-6f"/>
     <use x="1300.48828125" xlink:href="#DejaVuSans-20"/>
     <use x="1332.27539062" xlink:href="#DejaVuSans-69"/>
     <use x="1360.05859375" xlink:href="#DejaVuSans-6e"/>
     <use x="1423.4375" xlink:href="#DejaVuSans-20"/>
     <use x="1455.22460938" xlink:href="#DejaVuSans-36"/>
     <use x="1518.84765625" xlink:href="#DejaVuSans-2e"/>
     <use x="1550.63476562" xlink:href="#DejaVuSans-34"/>
     <use x="1614.2578125" xlink:href="#DejaVuSans-30"/>
     <use x="1677.88085938" xlink:href="#DejaVuSans-30"/>
     <use x="1741.50390625" xlink:href="#DejaVuSans-20"/>
     <use x="1773.29101562" xlink:href="#DejaVuSans-68"/>
     <use x="1836.66992188" xlink:href="#DejaVuSans-61"/>
     <use x="1897.94921875" xlink:href="#DejaVuSans-6e"/>
     <use x="1961.328125" xlink:href="#DejaVuSans-6e"/>
     <use x="2024.70703125" xlink:href="#DejaVuSans-6f"/>
     <use x="2085.88867188" xlink:href="#DejaVuSans-20"/>
     <use x="2117.67578125" xlink:href="#DejaVuSans-69"/>
     <use x="2145.45898438" xlink:href="#DejaVuSans-6c"/>
     <use x="2173.2421875" xlink:href="#DejaVuSans-20"/>
     <use x="2205.02929688" xlink:href="#DejaVuSans-63"/>
     <use x="2260.00976562" xlink:href="#DejaVuSans-61"/>
     <use x="2321.2890625" xlink:href="#DejaVuSans-6d"/>
     <use x="2418.70117188" xlink:href="#DejaVuSans-70"/>
     <use x="2482.17773438" xlink:href="#DejaVuSans-6f"/>
     <use x="2543.359375" xlink:href="#DejaVuSans-20"/>
     <use x="2575.14648438" xlink:href="#DejaVuSans-67"/>
     <use x="2638.62304688" xlink:href="#DejaVuSans-72"/>
     <use x="2679.73632812" xlink:href="#DejaVuSans-75"/>
     <use x="2743.11523438" xlink:href="#DejaVuSans-70"/>
     <use x="2806.59179688" xlink:href="#DejaVuSans-70"/>
     <use x="2870.06835938" xlink:href="#DejaVuSans-6f"/>
     <use x="2931.25" xlink:href="#DejaVuSans-20"/>
     <use x="2963.03710938" xlink:href="#DejaVuSans-70"/>
     <use x="3026.51367188" xlink:href="#DejaVuSans-6f"/>
     <use x="3087.6953125" xlink:href="#DejaVuSans-70"/>
     <use x="3151.171875" xlink:href="#DejaVuSans-6f"/>
     <use x="3212.35351562" xlink:href="#DejaVuSans-6c"/>
     <use x="3240.13671875" xlink:href="#DejaVuSans-61"/>
     <use x="3301.41601562" xlink:href="#DejaVuSans-74"/>
     <use x="3340.625" xlink:href="#DejaVuSans-6f"/>
     <use x="3400.05664062" xlink:href="#DejaVuSans-2e"/>
    </g>
   </g>
   <g id="text_30">
    <g id="patch_17">
     <path d="
M5.2 338.645
L691.334 338.645
L691.334 324.967
L5.2 324.967
z
" style="fill:#808080;stroke:#808080;stroke-linejoin:miter;stroke-width:0.5;"/>
    </g>
    <a xlink:href="http://www.ildatomancante.it">
     <!-- www.ildatomancante.it                                                                                                                                                        Fonte: dati.gov.it -->
     <defs>
      <path d="
M11.7188 12.4062
L22.0156 12.4062
L22.0156 0
L11.7188 0
z

M11.7188 51.7031
L22.0156 51.7031
L22.0156 39.3125
L11.7188 39.3125
z
" id="DejaVuSans-3a"/>
      <path d="
M4.20312 54.6875
L13.1875 54.6875
L24.4219 12.0156
L35.5938 54.6875
L46.1875 54.6875
L57.4219 12.0156
L68.6094 54.6875
L77.5938 54.6875
L63.2812 0
L52.6875 0
L40.9219 44.8281
L29.1094 0
L18.5 0
z
" id="DejaVuSans-77"/>
      <path d="
M9.8125 72.9062
L51.7031 72.9062
L51.7031 64.5938
L19.6719 64.5938
L19.6719 43.1094
L48.5781 43.1094
L48.5781 34.8125
L19.6719 34.8125
L19.6719 0
L9.8125 0
z
" id="DejaVuSans-46"/>
     </defs>
     <g style="fill:#f0f0f0;" transform="translate(7.2 334.5658125)scale(0.1 -0.1)">
      <use xlink:href="#DejaVuSans-77"/>
      <use x="81.787109375" xlink:href="#DejaVuSans-77"/>
      <use x="163.57421875" xlink:href="#DejaVuSans-77"/>
      <use x="236.236328125" xlink:href="#DejaVuSans-2e"/>
      <use x="268.0234375" xlink:href="#DejaVuSans-69"/>
      <use x="295.806640625" xlink:href="#DejaVuSans-6c"/>
      <use x="323.58984375" xlink:href="#DejaVuSans-64"/>
      <use x="387.06640625" xlink:href="#DejaVuSans-61"/>
      <use x="448.345703125" xlink:href="#DejaVuSans-74"/>
      <use x="487.5546875" xlink:href="#DejaVuSans-6f"/>
      <use x="548.736328125" xlink:href="#DejaVuSans-6d"/>
      <use x="646.1484375" xlink:href="#DejaVuSans-61"/>
      <use x="707.427734375" xlink:href="#DejaVuSans-6e"/>
      <use x="770.806640625" xlink:href="#DejaVuSans-63"/>
      <use x="825.787109375" xlink:href="#DejaVuSans-61"/>
      <use x="887.06640625" xlink:href="#DejaVuSans-6e"/>
      <use x="950.4453125" xlink:href="#DejaVuSans-74"/>
      <use x="989.654296875" xlink:href="#DejaVuSans-65"/>
      <use x="1051.17773438" xlink:href="#DejaVuSans-2e"/>
      <use x="1082.96484375" xlink:href="#DejaVuSans-69"/>
      <use x="1110.74804688" xlink:href="#DejaVuSans-74"/>
      <use x="1149.95703125" xlink:href="#DejaVuSans-20"/>
      <use x="1181.74414062" xlink:href="#DejaVuSans-20"/>
      <use x="1213.53125" xlink:href="#DejaVuSans-20"/>
      <use x="1245.31835938" xlink:href="#DejaVuSans-20"/>
      <use x="1277.10546875" xlink:href="#DejaVuSans-20"/>
      <use x="1308.89257812" xlink:href="#DejaVuSans-20"/>
      <use x="1340.6796875" xlink:href="#DejaVuSans-20"/>
      <use x="1372.46679688" xlink:href="#DejaVuSans-20"/>
      <use x="1404.25390625" xlink:href="#DejaVuSans-20"/>
      <use x="1436.04101562" xlink:href="#DejaVuSans-20"/>
      <use x="1467.828125" xlink:href="#DejaVuSans-20"/>
      <use x="1499.61523438" xlink:href="#DejaVuSans-20"/>
      <use x="1531.40234375" xlink:href="#DejaVuSans-20"/>
      <use x="1563.18945312" xlink:href="#DejaVuSans-20"/>
      <use x="1594.9765625" xlink:href="#DejaVuSans-20"/>
      <use x="1626.76367188" xlink:href="#DejaVuSans-20"/>
      <use x="1658.55078125" xlink:href="#DejaVuSans-20"/>
      <use x="1690.33789062" xlink:href="#DejaVuSans-20"/>
      <use x="1722.125" xlink:href="#DejaVuSans-20"/>
      <use x="1753.91210938" xlink:href="#DejaVuSans-20"/>
      <use x="1785.69921875" xlink:href="#DejaVuSans-20"/>
      <use x="1817.48632812" xlink:href="#DejaVuSans-20"/>
      <use x="1849.2734375" xlink:href="#DejaVuSans-20"/>
      <use x="1881.06054688" xlink:href="#DejaVuSans-20"/>
      <use x="1912.84765625" xlink:href="#DejaVuSans-20"/>
      <use x="1944.63476562" xlink:href="#DejaVuSans-20"/>
      <use x="1976.421875" xlink:href="#DejaVuSans-20"/>
      <use x="2008.20898438" xlink:href="#DejaVuSans-20"/>
      <use x="2039.99609375" xlink:href="#DejaVuSans-20"/>
      <use x="2071.78320312" xlink:href="#DejaVuSans-20"/>
      <use x="2103.5703125" xlink:href="#DejaVuSans-20"/>
      <use x="2135.35742188" xlink:href="#DejaVuSans-20"/>
      <use x="2167.14453125" xlink:href="#DejaVuSans-20"/>
      <use x="2198.93164062" xlink:href="#DejaVuSans-20"/>
      <use x="2230.71875" xlink:href="#DejaVuSans-20"/>
      <use x="2262.50585938" xlink:href="#DejaVuSans-20"/>
      <use x="2294.29296875" xlink:href="#DejaVuSans-20"/>
      <use x="2326.08007812" xlink:href="#DejaVuSans-20"/>
      <use x="2357.8671875" xlink:href="#DejaVuSans-20"/>
      <use x="2389.65429688" xlink:href="#DejaVuSans-20"/>
      <use x="2421.44140625" xlink:href="#DejaVuSans-20"/>
      <use x="2453.22851562" xlink:href="#DejaVuSans-20"/>
      <use x="2485.015625" xlink:href="#DejaVuSans-20"/>
      <use x="2516.80273438" xlink:href="#DejaVuSans-20"/>
      <use x="2548.58984375" xlink:href="#DejaVuSans-20"/>
      <use x="2580.37695312" xlink:href="#DejaVuSans-20"/>
      <use x="2612.1640625" xlink:href="#DejaVuSans-20"/>
      <use x="2643.95117188" xlink:href="#DejaVuSans-20"/>
      <use x="2675.73828125" xlink:href="#DejaVuSans-20"/>
      <use x="2707.52539062" xlink:href="#DejaVuSans-20"/>
      <use x="2739.3125" xlink:href="#DejaVuSans-20"/>
      <use x="2771.09960938" xlink:href="#DejaVuSans-20"/>
      <use x="2802.88671875" xlink:href="#DejaVuSans-20"/>
      <use x="2834.67382812" xlink:href="#DejaVuSans-20"/>
      <use x="2866.4609375" xlink:href="#DejaVuSans-20"/>
      <use x="2898.24804688" xlink:href="#DejaVuSans-20"/>
      <use x="2930.03515625" xlink:href="#DejaVuSans-20"/>
      <use x="2961.82226562" xlink:href="#DejaVuSans-20"/>
      <use x="2993.609375" xlink:href="#DejaVuSans-20"/>
      <use x="3025.39648438" xlink:href="#DejaVuSans-20"/>
      <use x="3057.18359375" xlink:href="#DejaVuSans-20"/>
      <use x="3088.97070312" xlink:href="#DejaVuSans-20"/>
      <use x="3120.7578125" xlink:href="#DejaVuSans-20"/>
      <use x="3152.54492188" xlink:href="#DejaVuSans-20"/>
      <use x="3184.33203125" xlink:href="#DejaVuSans-20"/>
      <use x="3216.11914062" xlink:href="#DejaVuSans-20"/>
      <use x="3247.90625" xlink:href="#DejaVuSans-20"/>
      <use x="3279.69335938" xlink:href="#DejaVuSans-20"/>
      <use x="3311.48046875" xlink:href="#DejaVuSans-20"/>
      <use x="3343.26757812" xlink:href="#DejaVuSans-20"/>
      <use x="3375.0546875" xlink:href="#DejaVuSans-20"/>
      <use x="3406.84179688" xlink:href="#DejaVuSans-20"/>
      <use x="3438.62890625" xlink:href="#DejaVuSans-20"/>
      <use x="3470.41601562" xlink:href="#DejaVuSans-20"/>
      <use x="3502.203125" xlink:href="#DejaVuSans-20"/>
      <use x="3533.99023438" xlink:href="#DejaVuSans-20"/>
      <use x="3565.77734375" xlink:href="#DejaVuSans-20"/>
      <use x="3597.56445312" xlink:href="#DejaVuSans-20"/>
      <use x="3629.3515625" xlink:href="#DejaVuSans-20"/>
      <use x="3661.13867188" xlink:href="#DejaVuSans-20"/>
      <use x="3692.92578125" xlink:href="#DejaVuSans-20"/>
      <use x="3724.71289062" xlink:href="#DejaVuSans-20"/>
      <use x="3756.5" xlink:href="#DejaVuSans-20"/>
      <use x="3788.28710938" xlink:href="#DejaVuSans-20"/>
      <use x="3820.07421875" xlink:href="#DejaVuSans-20"/>
      <use x="3851.86132812" xlink:href="#DejaVuSans-20"/>
      <use x="3883.6484375" xlink:href="#DejaVuSans-20"/>
      <use x="3915.43554688" xlink:href="#DejaVuSans-20"/>
      <use x="3947.22265625" xlink:href="#DejaVuSans-20"/>
      <use x="3979.00976562" xlink:href="#DejaVuSans-20"/>
      <use x="4010.796875" xlink:href="#DejaVuSans-20"/>
      <use x="4042.58398438" xlink:href="#DejaVuSans-20"/>
      <use x="4074.37109375" xlink:href="#DejaVuSans-20"/>
      <use x="4106.15820312" xlink:href="#DejaVuSans-20"/>
      <use x="4137.9453125" xlink:href="#DejaVuSans-20"/>
      <use x="4169.73242188" xlink:href="#DejaVuSans-20"/>
      <use x="4201.51953125" xlink:href="#DejaVuSans-20"/>
      <use x="4233.30664062" xlink:href="#DejaVuSans-20"/>
      <use x="4265.09375" xlink:href="#DejaVuSans-20"/>
      <use x="4296.88085938" xlink:href="#DejaVuSans-20"/>
      <use x="4328.66796875" xlink:href="#DejaVuSans-20"/>
      <use x="4360.45507812" xlink:href="#DejaVuSans-20"/>
      <use x="4392.2421875" xlink:href="#DejaVuSans-20"/>
      <use x="4424.02929688" xlink:href="#DejaVuSans-20"/>
      <use x="4455.81640625" xlink:href="#DejaVuSans-20"/>
      <use x="4487.60351562" xlink:href="#DejaVuSans-20"/>
      <use x="4519.390625" xlink:href="#DejaVuSans-20"/>
      <use x="4551.17773438" xlink:href="#DejaVuSans-20"/>
      <use x="4582.96484375" xlink:href="#DejaVuSans-20"/>
      <use x="4614.75195312" xlink:href="#DejaVuSans-20"/>
      <use x="4646.5390625" xlink:href="#DejaVuSans-20"/>
      <use x="4678.32617188" xlink:href="#DejaVuSans-20"/>
      <use x="4710.11328125" xlink:href="#DejaVuSans-20"/>
      <use x="4741.90039062" xlink:href="#DejaVuSans-20"/>
      <use x="4773.6875" xlink:href="#DejaVuSans-20"/>
      <use x="4805.47460938" xlink:href="#DejaVuSans-20"/>
      <use x="4837.26171875" xlink:href="#DejaVuSans-20"/>
      <use x="4869.04882812" xlink:href="#DejaVuSans-20"/>
      <use x="4900.8359375" xlink:href="#DejaVuSans-20"/>
      <use x="4932.62304688" xlink:href="#DejaVuSans-20"/>
      <use x="4964.41015625" xlink:href="#DejaVuSans-20"/>
      <use x="4996.19726562" xlink:href="#DejaVuSans-20"/>
      <use x="5027.984375" xlink:href="#DejaVuSans-20"/>
      <use x="5059.77148438" xlink:href="#DejaVuSans-20"/>
      <use x="5091.55859375" xlink:href="#DejaVuSans-20"/>
      <use x="5123.34570312" xlink:href="#DejaVuSans-20"/>
      <use x="5155.1328125" xlink:href="#DejaVuSans-20"/>
      <use x="5186.91992188" xlink:href="#DejaVuSans-20"/>
      <use x="5218.70703125" xlink:href="#DejaVuSans-20"/>
      <use x="5250.49414062" xlink:href="#DejaVuSans-20"/>
      <use x="5282.28125" xlink:href="#DejaVuSans-20"/>
      <use x="5314.06835938" xlink:href="#DejaVuSans-20"/>
      <use x="5345.85546875" xlink:href="#DejaVuSans-20"/>
      <use x="5377.64257812" xlink:href="#DejaVuSans-20"/>
      <use x="5409.4296875" xlink:href="#DejaVuSans-20"/>
      <use x="5441.21679688" xlink:href="#DejaVuSans-20"/>
      <use x="5473.00390625" xlink:href="#DejaVuSans-20"/>
      <use x="5504.79101562" xlink:href="#DejaVuSans-20"/>
      <use x="5536.578125" xlink:href="#DejaVuSans-20"/>
      <use x="5568.36523438" xlink:href="#DejaVuSans-20"/>
      <use x="5600.15234375" xlink:href="#DejaVuSans-20"/>
      <use x="5631.93945312" xlink:href="#DejaVuSans-20"/>
      <use x="5663.7265625" xlink:href="#DejaVuSans-20"/>
      <use x="5695.51367188" xlink:href="#DejaVuSans-20"/>
      <use x="5727.30078125" xlink:href="#DejaVuSans-20"/>
      <use x="5759.08789062" xlink:href="#DejaVuSans-20"/>
      <use x="5790.875" xlink:href="#DejaVuSans-20"/>
      <use x="5822.66210938" xlink:href="#DejaVuSans-20"/>
      <use x="5854.44921875" xlink:href="#DejaVuSans-20"/>
      <use x="5886.23632812" xlink:href="#DejaVuSans-20"/>
      <use x="5918.0234375" xlink:href="#DejaVuSans-20"/>
      <use x="5949.81054688" xlink:href="#DejaVuSans-20"/>
      <use x="5981.59765625" xlink:href="#DejaVuSans-46"/>
      <use x="6035.4921875" xlink:href="#DejaVuSans-6f"/>
      <use x="6096.67382812" xlink:href="#DejaVuSans-6e"/>
      <use x="6160.05273438" xlink:href="#DejaVuSans-74"/>
      <use x="6199.26171875" xlink:href="#DejaVuSans-65"/>
      <use x="6260.78515625" xlink:href="#DejaVuSans-3a"/>
      <use x="6294.4765625" xlink:href="#DejaVuSans-20"/>
      <use x="6326.26367188" xlink:href="#DejaVuSans-64"/>
      <use x="6389.74023438" xlink:href="#DejaVuSans-61"/>
      <use x="6451.01953125" xlink:href="#DejaVuSans-74"/>
      <use x="6490.22851562" xlink:href="#DejaVuSans-69"/>
      <use x="6518.01171875" xlink:href="#DejaVuSans-2e"/>
      <use x="6549.79882812" xlink:href="#DejaVuSans-67"/>
      <use x="6613.27539062" xlink:href="#DejaVuSans-6f"/>
      <use x="6674.45703125" xlink:href="#DejaVuSans-76"/>
      <use x="6725.88671875" xlink:href="#DejaVuSans-2e"/>
      <use x="6757.67382812" xlink:href="#DejaVuSans-69"/>
      <use x="6785.45703125" xlink:href="#DejaVuSans-74"/>
     </g>
    </a>
   </g>
  </g>
 </g>
 <defs>
  <clipPath id="pcf09616d9d">
   <rect height="239.04" width="626.4" x="51.048" y="35.7658125"/>
  </clipPath>
 </defs>
</svg>
